<?xml version="1.0" encoding="UTF-8"?>
<!DOCTYPE svg PUBLIC "-//W3C//DTD SVG 1.1//EN" "http://www.w3.org/Graphics/SVG/1.1/DTD/svg11.dtd">
<!-- Creator: CorelDRAW 2021 (64-Bit) -->
<svg xmlns="http://www.w3.org/2000/svg" xml:space="preserve" width="1.89561in" height="2.29929in" version="1.1" style="shape-rendering:geometricPrecision; text-rendering:geometricPrecision; image-rendering:optimizeQuality; fill-rule:evenodd; clip-rule:evenodd"
viewBox="0 0 377.89 458.36"
 xmlns:xlink="http://www.w3.org/1999/xlink"
 xmlns:xodm="http://www.corel.com/coreldraw/odm/2003">
 <defs>
  <style type="text/css">
   <![CDATA[
    .fil1 {fill:#008BCB}
    .fil0 {fill:#444F54}
   ]]>
  </style>
 </defs>
 <g id="Layer_x0020_1">
  <metadata id="CorelCorpID_0Corel-Layer"/>
  <g id="_2462736798544">
   <path class="fil0" d="M193.07 450.33l-8.04 0 -8.18 0 -137.47 0c-4.69,0 -7.03,-2.34 -7.03,-7.04l0 -120.53c0,-3.39 1.78,-7.04 5.02,-7.04l133.66 0 13.99 0 8.04 0 0 13.06c0,6.67 24.11,-0.7 24.11,30.14 0,3.27 -2.85,3.87 -5.02,5.02 -7.65,-6.65 -1.44,-8.18 -5.8,-16.3 -2.47,-4.61 -7.11,-7.29 -13.29,-7.81l0 39.17c31.97,0 32.84,55.25 0,55.25l0 16.07 145.65 0c4.69,0 7.03,-2.34 7.03,-7.04l0 -120.53c0,-3.39 -1.77,-7.04 -5.02,-7.04l-144.39 0 -3.26 0 -8.04 0c0,20.45 1.15,14.17 -8.71,17.41 -10.78,3.53 -15.39,13.62 -15.39,25.79 0,15.67 8.99,27.79 24.11,28.12l0 39.17c-22.69,-5.28 -9.25,-17.52 -19.08,-24.11l-3.98 1.13c-4.28,16.08 6.78,31.02 23.06,31.02l0 16.07 8.04 0zm0 -24.11l0 -38.17c19.86,0 16.74,26.77 11.02,33.13 -3.9,4.33 -6.28,2.77 -11.02,5.04zm-23.1 -64.28l0 -7.03c0,-9.18 6.59,-14.36 15.07,-15.06l0 38.17c-9.45,-0.21 -15.07,-6.73 -15.07,-16.07zm-9.04 -64.28l56.25 0 0 9.04 -56.25 0 0 -9.04zm-14.06 0l6.03 0 0 9.04 -12.06 0c0.94,-1.78 1.29,-2.67 2.23,-4.8 1.14,-2.6 0.52,-4.23 3.8,-4.23zm78.35 5.02l0 -5.02 8.04 0c0.89,3.83 2.12,4.2 3.01,8.04 -4.8,0 -11.05,1.53 -11.05,-3.01zm16.07 -9.04c0,-15.54 24.1,-15.54 24.1,0 0,15.54 -24.1,15.54 -24.1,0zm-116.52 -12.05c2.31,0 6.86,2.21 8.35,3.7 10.7,10.64 -5.47,27.89 -16.7,16.7 -4.28,-4.26 -4.28,-12.44 0,-16.7 1.49,-1.49 6.04,-3.7 8.35,-3.7zm108.48 8.04l-64.28 0 0 -40.18 108.48 0 0 40.18 -4.02 0c-1.93,-8.3 -10.02,-16.08 -17.07,-16.08 -7.22,0 -11.12,-0.17 -16.88,5.22 -2.87,2.69 -5.23,6.58 -6.22,10.85zm-104.46 -44.2l16.07 0 0 12.05 -16.07 0 0 -12.05zm0 -12.05l32.14 0 0 56.25 -16.07 0c-1.93,-8.3 -10.02,-16.08 -17.08,-16.08 -11.08,0 -20.16,3.46 -23.1,16.08l-8.03 0 0 -24.11 52.23 0c6.25,0 4.02,-11.68 4.02,-24.1 0,-6.25 -11.68,-4.02 -24.11,-4.02l0 -4.01zm115.51 2l3.23 -2.8c3.2,2.08 4.05,5.45 9.19,4.28 11.54,-2.63 9.68,-6.39 9.68,-11.52l6.03 0c0,6.44 -1.63,8.14 8.93,11.29 5.87,1.75 6.05,-1.5 10.16,-4.26l2.8 3.23c-3.07,4.75 -7.27,3.88 -2.01,15.07 2.08,4.44 1.83,3.8 9.26,3.8l0 6.03c-6.44,0 -8.14,-1.63 -11.29,8.93 -1.75,5.87 1.51,6.04 4.26,10.15l-3.23 2.8c-2.89,-1.87 -2.02,-2.79 -5.81,-3.8 0,-8.37 1.63,-30.67 -1,-36.16 -5.49,-2.64 -27.79,-1.01 -36.16,-1.01 -1.01,-3.8 -1.94,-2.93 -4.02,-6.03zm-123.55 -6.03l0 28.13 -28.12 0c-2.35,0 -4.02,1.67 -4.02,4.02 0,41.96 -3.63,36.16 16.07,36.16 1.48,3.09 2.38,5.95 4.02,9.04l-44.2 0 0 -175.77c0,-3.09 0.93,-6.03 4.02,-6.03l80.35 0c3.09,0 4.02,2.94 4.02,6.03l0 94.42 -28.12 0c-2.35,0 -4.02,1.66 -4.02,4.01zm137.61 -2c-4.86,-0.41 -6.28,-4.02 -10.05,-4.02 -0.87,0 -17.95,5.04 -11.05,18.08l-12.05 0 0 -33.15c0,-2.32 0.7,-3.01 3.01,-3.01l82.36 0c2.32,0 3.01,0.7 3.01,3.01l0 94.42c0,4.92 -10.25,3.01 -20.09,3.01 -7.7,0 -15.4,0 -23.1,0 0.51,-2.18 2.11,-6.15 3.01,-8.04 9.95,0 12.05,2.04 12.05,-8.04 12.15,6.42 18.08,-9.14 18.08,-10.05 0,-6.01 -3.46,-4.3 -4.02,-11.05 11.63,0 10.05,-5.09 10.05,-16.07 0,-5.36 -5.94,-6.03 -10.05,-6.03 0.51,-6.14 4.02,-6 4.02,-10.04 0,-4.8 -7.65,-13.06 -12.05,-13.06 -5.64,0 -5.69,3.57 -11.05,4.02 0,-11.63 -5.09,-10.04 -16.07,-10.04 -5.35,0 -6.03,5.94 -6.03,10.04zm30.13 -47.21c0,-4.38 4.25,-3.02 14.06,-3.02 4.87,0 3.01,7.31 3.01,20.09l-17.07 0 0 -17.08zm-232.03 -53.24l0 179.8c-10.16,0 -32.14,-2.52 -32.14,13.06l0 126.56c0,6.04 6.02,12.06 12.05,12.06l305.35 0c6.03,0 12.05,-6.02 12.05,-12.06l0 -126.56c0,-15.58 -21.98,-13.06 -32.14,-13.06l0 -100.44c0,-5.41 -3.6,-8.01 -8.04,-9.04 0,-29.91 2.44,-28.13 -24.11,-28.13 -6.26,0 -8.78,4.17 -9.09,9.99 -0.86,15.85 0.05,6.48 0.05,18.13l-54.24 0c-4.96,0 -9.04,4.07 -9.04,9.04l0 35.16 -48.21 0c0,-16.09 1.41,-16.07 -8.04,-16.07l0 -98.44c0,-5.05 -4.99,-10.04 -10.04,-10.04l-84.37 0c-5.05,0 -10.05,4.99 -10.05,10.04z"/>
   <path class="fil1" d="M172.74 72.9c4.22,-0.24 8.28,-0.39 8.28,-4.26l0 -60.27 16.07 0 0 60.27c0,4.32 3.66,4.02 8.04,4.02l-15.83 16.31 -16.56 -16.07zm0.24 -66.54l0 57.25c-22.64,0 -8.46,13.13 -0.75,20.84 16.48,16.48 16.9,16.75 33.15,0.5 4.76,-4.76 11.8,-9.25 11.8,-16.32 0,-5.71 -8.43,-5.02 -12.05,-5.02l0 -57.25c0,-8.5 -16.53,-6.03 -26.12,-6.03 -2.42,0 -6.03,3.61 -6.03,6.03z"/>
   <path class="fil1" d="M12.03 72.9c4.22,-0.24 8.28,-0.39 8.28,-4.26l0 -60.27 16.07 0 0 60.27c0,4.32 3.66,4.02 8.04,4.02l-15.83 16.31 -16.56 -16.07zm0.24 -66.54l0 57.25c-22.64,0 -8.46,13.13 -0.75,20.84 16.48,16.48 16.9,16.75 33.15,0.5 4.76,-4.76 11.8,-9.25 11.8,-16.32 0,-5.71 -8.43,-5.02 -12.05,-5.02l0 -57.25c0,-8.5 -16.53,-6.03 -26.12,-6.03 -2.42,0 -6.03,3.61 -6.03,6.03z"/>
   <path class="fil1" d="M333.45 72.9c4.22,-0.24 8.28,-0.39 8.28,-4.26l0 -60.27 16.07 0 0 60.27c0,4.32 3.66,4.02 8.04,4.02l-15.83 16.31 -16.56 -16.07zm0.25 -66.54l0 57.25c-22.65,0 -8.47,13.13 -0.76,20.84 16.48,16.48 16.9,16.75 33.15,0.5 4.76,-4.76 11.8,-9.25 11.8,-16.32 0,-5.71 -8.44,-5.02 -12.06,-5.02l0 -57.25c0,-8.5 -16.53,-6.03 -26.11,-6.03 -2.42,0 -6.03,3.61 -6.03,6.03z"/>
   <path class="fil0" d="M282.47 363.94c30.59,0 24.9,38.17 3.01,38.17 -12.71,0 -20.54,-7.97 -20.61,-19.07 -0.06,-9.74 6.97,-19.1 17.6,-19.1zm-26.12 18.08c0,27.48 30.3,37.21 47.49,21.37 21.69,-19.99 -0.25,-59.24 -31.75,-45.81 -7.75,3.31 -15.74,13.28 -15.74,24.44z"/>
   <path class="fil0" d="M96.64 402.11c-26.36,0 -24.93,-24.14 -17.38,-32.44 9.79,-10.75 33.31,-6.71 34.1,12.46 0.42,10.31 -8.71,19.98 -16.72,19.98zm-31.14 -19.08c0,24.71 30.36,37.04 47.5,20.38 17.05,-16.57 9.13,-48.51 -21.39,-48.51 -13.12,0 -26.12,13.48 -26.12,28.13z"/>
   <path class="fil0" d="M310.59 142.96c0,5.48 -5.29,2.5 -8.28,3.76l-4.77 4.27c-4.32,-1.15 -1.46,-1.58 -5.37,-2.38 -6.02,-1.23 -4.49,5.36 -6.87,-6.48 -0.97,-4.83 -1.83,-1.73 -1.83,-5.21 0,-4.32 3.62,-3.06 6.14,-4.91 4.52,-3.31 -1.11,-3.11 4.91,-7.14 6.09,1.63 1.48,3.04 6.43,4.51 4.24,1.25 1.15,-1.91 7.63,1.52 -0.09,4.07 -1.21,4.11 -0.67,6.8 0.77,3.77 2.67,1.57 2.67,5.26zm-15.07 16.07c6.05,0 4.39,-0.14 7.75,-2.3 2.39,-1.54 0.29,-0.65 2.63,-1.39 6,-1.91 12.72,-0.65 12.72,-13.39 0,-6.16 -1.26,0.61 -2.01,-10.04 -0.76,-10.81 -7.76,-9.8 -12.73,-11.38 -3.69,-1.17 -0.88,-0.54 -3.77,-2.25 -4.53,-2.68 -10.31,-1.99 -13.66,2.56 -2.26,3.07 -0.93,3.23 -4.3,5.74 -4.3,3.2 -8.96,6.08 -6.84,12.51l1.55 6.75c0.25,2.92 1.18,5.13 3.27,7.48 2.12,2.39 3.12,3.09 6.47,3.57 7.55,1.09 6.88,2.13 8.91,2.13z"/>
   <path class="fil0" d="M120.75 185.15l16.07 0 0 16.07 -16.07 0 0 -16.07zm-8.04 -4.02c0,33.97 -5.85,28.12 28.12,28.12 6.52,0 4.02,-14.07 4.02,-28.12 0,-6.52 -14.07,-4.02 -28.12,-4.02 -2.35,0 -4.02,1.67 -4.02,4.02z"/>
   <path class="fil0" d="M80.57 185.15l16.07 0 0 16.07 -16.07 0 0 -16.07zm-8.04 -4.02c0,33.97 -5.85,28.12 28.13,28.12 6.52,0 4.02,-14.07 4.02,-28.12 0,-6.52 -14.07,-4.02 -28.12,-4.02 -2.35,0 -4.02,1.67 -4.02,4.02z"/>
   <path class="fil0" d="M120.75 144.97l16.07 0 0 16.07 -16.07 0 0 -16.07zm-8.04 -4.02c0,33.97 -5.85,28.12 28.12,28.12 6.52,0 4.02,-14.07 4.02,-28.12 0,-6.52 -14.07,-4.02 -28.12,-4.02 -2.35,0 -4.02,1.67 -4.02,4.02z"/>
   <path class="fil0" d="M80.57 144.97l16.07 0 0 16.07 -16.07 0 0 -16.07zm-8.04 -4.02c0,33.97 -5.85,28.12 28.13,28.12 6.52,0 4.02,-14.07 4.02,-28.12 0,-6.52 -14.07,-4.02 -28.12,-4.02 -2.35,0 -4.02,1.67 -4.02,4.02z"/>
   <path class="fil0" d="M80.57 225.33l16.07 0 0 16.07 -16.07 0 0 -16.07zm-8.04 -4.02c0,33.97 -5.85,28.12 28.13,28.12 6.52,0 4.02,-14.07 4.02,-28.12 0,-6.52 -14.07,-4.02 -28.12,-4.02 -2.35,0 -4.02,1.67 -4.02,4.02z"/>
  </g>
 </g>
</svg>
