<svg id="Layer_1" data-name="Layer 1" xmlns="http://www.w3.org/2000/svg" viewBox="0 0 120.41 131.56"><defs><style>.cls-1{fill:none;stroke:#091f2c;stroke-linecap:round;stroke-linejoin:round;stroke-width:3px;}.cls-2{fill:#5eabdb;}</style></defs><title>payroll_9127086b-be29-470d-ad60-fcbc466616ed</title><path class="cls-1" d="M109.22,88.14c7.55-5.62,9.67-13.63,9.69-20.82a38.43,38.43,0,0,0-7.79-22.94l-16.71-27h-28l-17.06,27a38.43,38.43,0,0,0-7.79,22.94c0,8,2.61,16.9,12.27,22.53" transform="translate(0 0)"/><path class="cls-1" d="M94.41,17.35l10.36-10-3.72-3.72A7.13,7.13,0,0,0,91,3.59l-3,3L86.63,5.27a8.81,8.81,0,0,0-12.46,0L72.85,6.59l-3-3a7.13,7.13,0,0,0-10.09,0L56,7.31l10.36,10" transform="translate(0 0)"/><path class="cls-1" d="M66.91,105.93h5.4a25.72,25.72,0,0,0,14.46-4.45l4-2.67a1.46,1.46,0,0,0,.44-2,6.91,6.91,0,0,0-2.26-2.11,6.69,6.69,0,0,0-6.3,0,17.15,17.15,0,0,1-13.83.55A45,45,0,0,0,62,91.71,28.51,28.51,0,0,0,34.7,95.05h0" transform="translate(0 0)"/><path class="cls-1" d="M34.7,114s12.21-2.37,33.56-1.15a31,31,0,0,0,16.25-3.58L117,92.16a1.27,1.27,0,0,0,.4-1.92c-1.16-1.49-3.8-3.55-9.1-2.16a13.51,13.51,0,0,0-1.75.63l-16.34,7" transform="translate(0 0)"/><polyline class="cls-1" points="22.36 121.84 34.37 121.84 34.37 90.85 22.36 90.85"/><polyline class="cls-1" points="1.5 130.06 22.36 130.06 22.36 81.79 1.5 81.79"/><path class="cls-1" d="M72.61,68.53a7.79,7.79,0,1,0,15.58,0c0-4.3-3.19-6.29-7.79-7.79-4.09-1.34-7.79-3.49-7.79-7.79a7.79,7.79,0,1,1,15.58,0" transform="translate(0 0)"/><line class="cls-1" x1="80.4" y1="40.81" x2="80.4" y2="45.21"/><line class="cls-1" x1="80.4" y1="76.33" x2="80.4" y2="80.72"/><path class="cls-2" d="M80.22,23.35H69.7L58,41.9l8.7-4.39a31.64,31.64,0,0,1,27.63-.43l7.35,3.43L91.07,23.35Z" transform="translate(0 0)"/></svg>