<svg id="Layer_1" data-name="Layer 1" xmlns="http://www.w3.org/2000/svg" viewBox="0 0 133 131.93"><defs><style>.cls-1{fill:none;stroke:#091f2c;stroke-linecap:round;stroke-linejoin:round;stroke-width:3px;}.cls-2{fill:#2e95d3;}</style></defs><title>roles_5e4422d1-b56f-495c-8f86-bd38449a25fd</title><polyline class="cls-1" points="17.08 111.33 27.15 120.3 41.66 102.55"/><rect class="cls-1" x="1.5" y="93" width="52.96" height="37.43"/><path class="cls-1" d="M48.58,87.45A20.6,20.6,0,0,0,28,66.84h0A20.61,20.61,0,0,0,7.37,87.45" transform="translate(0)"/><path class="cls-1" d="M60.46,97.18a28.38,28.38,0,1,0-23.27-34.7" transform="translate(0)"/><path class="cls-1" d="M72.13,41.72,112.34,1.5h12.32a6.84,6.84,0,0,1,6.84,6.84V20.66l-6.18,6.18v9.51H116v9.51l-9.42-.1v9.51H97.27L92,60.61" transform="translate(0)"/><line class="cls-1" x1="91.89" y1="41.77" x2="116.26" y2="17.4"/><path class="cls-1" d="M71.82,76.17a10,10,0,1,0-14.07,0A10,10,0,0,0,71.82,76.17Z" transform="translate(0)"/><path class="cls-1" d="M40.25,87.45s-.5-7.87-7.42-11.28" transform="translate(0)"/><path class="cls-2" d="M48.46,109.26,36.59,124.43H48.46Z" transform="translate(0)"/></svg>