<svg id="Layer_1" data-name="Layer 1" xmlns="http://www.w3.org/2000/svg" viewBox="0 0 103.53 127.34"><defs><style>.cls-1{fill:none;stroke:#091f2c;stroke-linecap:round;stroke-linejoin:round;stroke-width:3px;}.cls-2{fill:#2e95d3;}.cls-3{fill:#5eabdb;}</style></defs><title>projects_2fd0c5d0-d943-4eb9-b6a3-9118beb16375</title><path class="cls-1" d="M43.42,45.42a6.88,6.88,0,0,0,6.87,6.87h2.94a6.88,6.88,0,0,0,6.88-6.87V44.3L60,40.52v-.05a8.87,8.87,0,0,1,2.58-6.3A15.38,15.38,0,1,0,40.8,34a9.2,9.2,0,0,1,2.72,6.43v.05h8.24"/><line class="cls-1" x1="74.91" y1="22.55" x2="83.88" y2="22.55"/><line class="cls-1" x1="74.91" y1="29.62" x2="83.11" y2="33.9"/><line class="cls-1" x1="74.91" y1="15.48" x2="83.11" y2="11.2"/><line class="cls-1" x1="28.08" y1="22.55" x2="19.11" y2="22.55"/><line class="cls-1" x1="28.08" y1="29.62" x2="19.88" y2="33.9"/><line class="cls-1" x1="28.08" y1="15.48" x2="19.88" y2="11.2"/><path class="cls-1" d="M57.76,64H102v3.45a7.86,7.86,0,0,1-7.87,7.86H57.76"/><path class="cls-1" d="M45.76,75.35H9.36A7.86,7.86,0,0,1,1.5,67.49V64H45.76"/><path class="cls-1" d="M95.17,64V4.46a3,3,0,0,0-3-3H11.32a3,3,0,0,0-3,3V64"/><path class="cls-1" d="M51.76,75.35v8.5a7.3,7.3,0,0,1-7.3,7.3H16.17a7.31,7.31,0,0,0-7.3,7.31V106"/><path class="cls-1" d="M51.76,52.29V83.85a7.31,7.31,0,0,0,7.31,7.3H87.35a7.31,7.31,0,0,1,7.31,7.31V106"/><rect class="cls-2" x="64.06" y="112.68" width="14.66" height="14.66" rx="3.13"/><rect class="cls-3" x="87.33" y="112.68" width="14.66" height="14.66" rx="3.13"/><rect class="cls-2" x="1.54" y="112.68" width="14.66" height="14.66" rx="3.13"/><rect class="cls-3" x="24.81" y="112.68" width="14.66" height="14.66" rx="3.13"/><path class="cls-3" d="M49.74,19.64a14.27,14.27,0,0,1,9.53,4.69,14.61,14.61,0,0,1,1.41,1.83,9.43,9.43,0,0,0,.47-2.91,9.39,9.39,0,0,0-9.39-9.38l-.67,0a9.42,9.42,0,0,0-8.45,7.2A14.81,14.81,0,0,1,49.74,19.64Z"/><line class="cls-1" x1="71.39" y1="91.15" x2="71.39" y2="106.04"/><line class="cls-1" x1="32.14" y1="91.15" x2="32.14" y2="106.04"/></svg>