<svg id="Layer_1" data-name="Layer 1" xmlns="http://www.w3.org/2000/svg" viewBox="0 0 136.72 119.95"><defs><style>.cls-1{fill:none;stroke:#091f2c;stroke-linecap:round;stroke-linejoin:round;stroke-width:3px;}.cls-2{fill:#2e95d3;}</style></defs><title>loans_7ecf1d75-c1be-4b7d-becd-fc45058f8621</title><path class="cls-1" d="M62.87,95.27l-2.31-8.18a26.35,26.35,0,0,0-14.24-16.7l-5.74-2.66a12.82,12.82,0,0,1-6.95-8.14l-2.78-9.8.22-1.65a8.45,8.45,0,0,0-3.92-8.29L27,39.77" transform="translate(0)"/><path class="cls-1" d="M34.62,79c-.41.06-.82.1-1.21.14a19.69,19.69,0,0,1-17.12-7.66c-8.4-10.75-14.79-4-14.79-4A137.34,137.34,0,0,1,13.15,83.92,24.85,24.85,0,0,0,28.52,95.85c.41.1.82.2,1.24.28a14.54,14.54,0,0,1,9.87,7.46" transform="translate(0)"/><path class="cls-1" d="M7.77,65.43,4.91,52.36l8.4-25.78s4.81,1.21,3.57,8.56L13.07,51.91l2.6,10.6" transform="translate(0)"/><path class="cls-1" d="M16.34,29.3l2.25-7s6.24,2.29,4.13,10.59L19.23,51.14,22,61" transform="translate(0)"/><path class="cls-1" d="M23.15,29.28l.31.23a9.45,9.45,0,0,1,3.71,9.37l-2,10.78,2.88,10" transform="translate(0)"/><polyline class="cls-1" points="60.01 112.41 40.38 118.45 35.09 105.26 62.87 95.27 62.87 101.95"/><line class="cls-1" x1="37.38" y1="110.96" x2="62.87" y2="101.95"/><path class="cls-1" d="M73.85,95.27l2.31-8.18A26.35,26.35,0,0,1,90.4,70.39l5.74-2.66a12.82,12.82,0,0,0,7-8.14l2.78-9.8-.22-1.65a8.45,8.45,0,0,1,3.92-8.29l.14-.08" transform="translate(0)"/><path class="cls-1" d="M102.1,79c.41.06.82.1,1.21.14a19.69,19.69,0,0,0,17.12-7.66c8.4-10.75,14.79-4,14.79-4a137.34,137.34,0,0,0-11.65,16.51A24.85,24.85,0,0,1,108.2,95.85c-.4.1-.82.2-1.24.28a14.5,14.5,0,0,0-9.86,7.46" transform="translate(0)"/><path class="cls-1" d="M129,65.43l2.86-13.07-8.39-25.78s-4.82,1.21-3.58,8.56l3.81,16.77-2.6,10.6" transform="translate(0)"/><path class="cls-1" d="M120.38,29.3l-2.25-7s-6.24,2.29-4.13,10.59l3.49,18.21L114.7,61" transform="translate(0)"/><path class="cls-1" d="M113.57,29.28l-.31.23a9.45,9.45,0,0,0-3.71,9.37l2,10.78-2.88,10" transform="translate(0)"/><polyline class="cls-1" points="76.71 112.41 96.34 118.45 101.63 105.26 73.85 95.27 73.85 101.95"/><line class="cls-1" x1="99.34" y1="110.96" x2="73.85" y2="101.95"/><path class="cls-2" d="M68.9,0A29.28,29.28,0,1,0,98.18,29.28,29.27,29.27,0,0,0,68.9,0Zm0,51.46A22.19,22.19,0,1,1,91.09,29.28,22.19,22.19,0,0,1,68.9,51.46Z" transform="translate(0)"/><path class="cls-1" d="M62.9,35.26a6,6,0,1,0,12,0c0-3.32-2.46-4.85-6-6-3.15-1-6-2.69-6-6a6,6,0,1,1,12,0" transform="translate(0)"/><line class="cls-1" x1="68.9" y1="13.9" x2="68.9" y2="17.29"/><line class="cls-1" x1="68.9" y1="41.26" x2="68.9" y2="44.65"/></svg>