<?xml version="1.0" encoding="UTF-8"?>
<!DOCTYPE svg PUBLIC "-//W3C//DTD SVG 1.1//EN" "http://www.w3.org/Graphics/SVG/1.1/DTD/svg11.dtd">
<!-- Creator: CorelDRAW 2021 (64-Bit) -->
<svg xmlns="http://www.w3.org/2000/svg" xml:space="preserve" width="3.66225in" height="2.31577in" version="1.1" style="shape-rendering:geometricPrecision; text-rendering:geometricPrecision; image-rendering:optimizeQuality; fill-rule:evenodd; clip-rule:evenodd"
viewBox="0 0 1354.58 856.55"
 xmlns:xlink="http://www.w3.org/1999/xlink"
 xmlns:xodm="http://www.corel.com/coreldraw/odm/2003">
 <defs>
  <style type="text/css">
   <![CDATA[
    .fil1 {fill:#008BCB}
    .fil0 {fill:#444F54}
   ]]>
  </style>
 </defs>
 <g id="Layer_x0020_1">
  <metadata id="CorelCorpID_0Corel-Layer"/>
  <g id="_2462736780976">
   <g>
    <path class="fil0" d="M1040 732.27c0,-29.92 0.58,-51.62 27.03,-76.07 61.36,-56.72 152.73,-6.69 152.73,54.92 0,36.34 -0.24,49.02 -27.06,76.04 -16.09,16.21 -36.67,24.98 -60.71,26.29 -47.24,2.56 -91.99,-42.43 -91.99,-81.17zm-1038.92 -119.35l0 -9.17c2,-9.09 10.23,-16.87 26.43,-16.87l192.98 0c38.92,0 31.93,44.94 2.64,44.94l-87.24 0 0 44.95 121.61 0c2.72,-11.68 12.21,-27.53 19.3,-36.22 50.61,-62.04 133.17,-70.48 190.01,-25.04 15.85,12.67 29.11,28.35 37.77,46.82 3.5,7.46 3.22,14.44 12,14.44l433.55 0 0 -158.61c0,-30.81 42.29,-23.33 42.29,-5.29l0 163.91c15.83,-0.36 10.79,-1.03 16.01,-13.07 36.18,-83.7 168.62,-110.04 230.97,-19.78 28.15,40.76 -3.87,32.85 72.89,32.85l0 -89.88c-58.23,0 -92.52,-17 -92.52,-84.59 0,-61.22 5.74,-50.23 87.24,-50.23 -6.02,-25.87 -34.19,-47.59 -66.09,-47.59l-248.49 0 0 29.08c0,19.74 -42.29,24.7 -42.29,-5.28l0 -385.96 -814.23 0 0 372.74c0,49.94 -44.94,38.71 -44.94,13.22l0 -388.61c0,-16.13 16.81,-39.65 42.3,-39.65l822.15 0c16.51,0 37.01,20.5 37.01,37.01l0 52.87 158.61 0c31.33,0 54.34,14.03 69.41,31.05 19.97,22.55 38.63,98.29 4.6,101.14l34.39 140.1c32.6,7.6 44.97,14.18 65.49,34.97 13.72,13.9 29.68,41.59 29.68,68.14l0 235.27c0,29.71 -45.07,21.15 -89.88,21.15 0,23 -3.81,38.33 -11.42,54.67 -62.51,134.19 -258.22,89.04 -258.22,-54.67l-475.85 0c0,71.07 -59.27,134.82 -129.53,134.82 -79.48,0 -140.11,-54.18 -140.11,-134.82 -155.07,0 -158.61,13.54 -158.61,-89.89l-66.09 0c-13.08,0 -21.72,-8.97 -23.79,-18.89zm378.03 18.89c111.15,0 126.19,138.16 39.69,174.51 -73.76,31.01 -150.04,-45.27 -119.03,-119.03 11.47,-27.28 40.76,-55.48 79.34,-55.48zm885.6 -113.67l0 -23.79 47.58 0 0 47.58 -23.79 0c-13.07,0 -23.79,-10.72 -23.79,-23.79zm-272.29 -163.91l0 -129.53 182.41 0c9.95,0 8.85,11.52 13.21,29.08l26.44 108.38 -201.07 0.16c-11.22,0.18 -20.99,2.62 -20.99,-8.09zm0 -219.41l166.55 0c9.69,0 23.2,8.11 28.13,14.17 6.45,7.93 11.23,17.76 11.52,30.78l-206.2 0 0 -44.95z"/>
    <path class="fil1" d="M519.21 396.54c-11.27,-7.54 -64.19,-62.86 -81.29,-79.97 -11.19,-11.2 -17.34,-23.13 -35.02,-23.13 -8.74,0 -18.51,12.31 -18.51,21.15 0,15.75 50.08,59.33 62.79,72.04 11.66,11.66 21.38,21.38 33.05,33.05 46.75,46.76 38.79,39.19 100.45,-22.47l137.46 -137.47c23.17,-23.18 25.78,-18.17 25.78,-40.32 0,-8.57 -11.49,-15.86 -21.15,-15.86 -13.44,0 -20.86,11.58 -28.43,19.17 -24.44,24.53 -163.76,166.2 -175.13,173.81z"/>
    <path class="fil1" d="M543 605.38c0,15.67 9.6,26.43 23.79,26.43l311.94 0c31.72,0 32.3,-44.94 0,-44.94l-311.94 0c-10.9,0 -23.79,8.89 -23.79,18.51z"/>
    <path class="fil1" d="M46.02 518.14c0,18.86 15.36,23.79 34.37,23.79l245.85 0c49.21,0 39.58,-44.94 13.22,-44.94l-272.28 0c-12.79,0 -21.15,8.36 -21.15,21.15z"/>
    <path class="fil0" d="M1084.94 721.7c0,60.24 89.89,56.22 89.89,2.64 0,-63.7 -89.89,-59.43 -89.89,-2.64z"/>
    <path class="fil0" d="M339.45 721.7c0,39.61 47.73,59.89 74.85,32.55 19.14,-19.3 18.91,-44.52 2.6,-62.43 -4.35,-4.79 -8.16,-7.41 -13.92,-9.87 -38.78,-16.6 -63.53,16.36 -63.53,39.75z"/>
   </g>
   <rect class="fil1" y="586.69" width="248.79" height="44.97" rx="25.17" ry="22.49"/>
  </g>
 </g>
</svg>
