<svg id="svg" version="1.1" xmlns="http://www.w3.org/2000/svg" xmlns:xlink="http://www.w3.org/1999/xlink" width="400" height="400" viewBox="0, 0, 400,400"><g id="svgg"><path id="path0" d="M165.833 0.343 C 164.319 0.787,161.185 2.399,160.667 3.001 C 160.621 3.054,160.227 3.319,159.792 3.591 C 159.357 3.862,159.000 4.140,159.000 4.208 C 159.000 4.277,158.904 4.333,158.787 4.333 C 158.670 4.333,158.328 4.558,158.027 4.833 C 157.726 5.108,157.447 5.333,157.408 5.333 C 157.369 5.333,157.205 5.444,157.044 5.580 C 156.686 5.882,152.487 9.024,150.516 10.465 C 149.728 11.042,149.001 11.622,148.900 11.754 C 148.799 11.886,148.668 11.946,148.609 11.886 C 148.549 11.827,148.500 11.848,148.500 11.933 C 148.500 12.018,148.200 12.273,147.833 12.500 C 147.467 12.727,147.167 12.969,147.167 13.039 C 147.167 13.109,147.054 13.167,146.917 13.167 C 146.779 13.167,146.667 13.237,146.667 13.322 C 146.667 13.408,146.535 13.520,146.375 13.571 C 146.215 13.623,145.858 13.859,145.583 14.097 C 145.308 14.334,144.877 14.651,144.625 14.800 C 144.373 14.950,144.167 15.131,144.167 15.203 C 144.167 15.275,144.054 15.333,143.917 15.333 C 143.779 15.333,143.667 15.392,143.667 15.464 C 143.667 15.536,143.460 15.719,143.208 15.870 C 142.956 16.022,142.563 16.295,142.333 16.477 C 141.232 17.352,129.411 25.907,128.583 26.428 C 128.308 26.601,128.046 26.786,128.000 26.839 C 127.954 26.892,127.392 27.291,126.750 27.725 C 126.108 28.160,125.133 28.846,124.583 29.251 C 124.033 29.656,123.302 30.154,122.958 30.358 C 122.615 30.561,122.333 30.789,122.333 30.864 C 122.333 30.939,122.258 31.000,122.167 31.000 C 122.000 31.000,115.583 35.589,114.167 36.722 C 114.029 36.831,113.654 37.107,113.333 37.333 C 113.013 37.560,112.638 37.837,112.500 37.949 C 112.362 38.061,111.725 38.530,111.083 38.991 C 110.442 39.452,109.825 39.907,109.712 40.001 C 109.599 40.096,109.149 40.412,108.712 40.703 C 108.275 40.994,107.879 41.282,107.833 41.341 C 107.787 41.401,107.418 41.658,107.013 41.912 C 106.608 42.166,106.195 42.442,106.096 42.526 C 105.998 42.610,105.167 43.205,104.250 43.848 C 103.333 44.492,102.396 45.168,102.167 45.352 C 101.938 45.535,101.469 45.845,101.125 46.040 C 100.781 46.235,100.500 46.451,100.500 46.520 C 100.500 46.589,100.200 46.814,99.833 47.020 C 99.467 47.226,99.167 47.456,99.167 47.531 C 99.167 47.605,99.054 47.667,98.917 47.667 C 98.779 47.667,98.667 47.737,98.667 47.822 C 98.667 47.908,98.525 48.022,98.352 48.077 C 98.179 48.132,97.843 48.357,97.606 48.577 C 97.369 48.796,96.948 49.110,96.671 49.274 C 96.394 49.438,96.167 49.631,96.167 49.703 C 96.167 49.775,96.054 49.833,95.917 49.833 C 95.779 49.833,95.667 49.895,95.667 49.969 C 95.667 50.044,95.367 50.274,95.000 50.480 C 94.633 50.686,94.333 50.925,94.333 51.011 C 94.333 51.096,94.254 51.167,94.157 51.167 C 93.976 51.167,92.041 52.523,91.481 53.042 C 91.308 53.202,91.125 53.333,91.074 53.333 C 91.023 53.333,90.517 53.674,89.949 54.091 C 89.381 54.508,85.129 57.583,80.500 60.924 C 75.871 64.265,71.338 67.543,70.426 68.208 C 69.515 68.873,68.548 69.553,68.277 69.721 C 68.006 69.888,67.685 70.124,67.564 70.246 C 67.442 70.368,67.059 70.641,66.713 70.852 C 66.367 71.064,65.987 71.331,65.869 71.446 C 65.751 71.561,65.432 71.786,65.161 71.947 C 64.889 72.107,64.667 72.297,64.667 72.369 C 64.667 72.441,64.554 72.500,64.417 72.500 C 64.279 72.500,64.167 72.559,64.167 72.631 C 64.167 72.703,63.923 72.905,63.625 73.081 C 63.139 73.367,62.009 74.178,61.330 74.727 C 61.190 74.840,60.702 75.185,60.246 75.495 C 58.946 76.379,56.922 77.900,56.861 78.040 C 56.831 78.110,56.733 78.167,56.644 78.167 C 56.555 78.167,55.980 78.538,55.366 78.992 C 54.203 79.851,38.923 90.880,35.781 93.128 C 34.790 93.837,33.877 94.510,33.752 94.625 C 33.626 94.740,33.443 94.833,33.345 94.833 C 33.247 94.833,33.167 94.892,33.167 94.964 C 33.167 95.036,32.944 95.226,32.673 95.387 C 32.401 95.547,32.081 95.776,31.961 95.896 C 31.841 96.016,31.408 96.326,31.000 96.583 C 30.592 96.841,30.159 97.150,30.039 97.270 C 29.919 97.390,29.599 97.620,29.327 97.780 C 29.056 97.941,28.833 98.131,28.833 98.203 C 28.833 98.275,28.753 98.333,28.654 98.333 C 28.460 98.333,25.952 100.165,25.861 100.373 C 25.831 100.443,25.734 100.500,25.646 100.500 C 25.558 100.500,24.897 100.931,24.178 101.458 C 23.459 101.985,21.869 103.137,20.644 104.018 C 18.575 105.505,11.514 110.609,5.250 115.144 C 0.554 118.544,-0.107 119.524,0.034 122.880 C 0.138 125.367,0.950 126.852,3.470 129.167 C 4.119 129.762,8.197 133.779,12.533 138.092 C 22.384 147.892,23.274 148.567,26.333 148.566 C 28.589 148.565,28.917 148.383,34.784 143.853 C 35.262 143.484,35.862 143.064,36.118 142.919 C 36.374 142.774,36.996 142.398,37.500 142.084 C 38.004 141.770,38.473 141.510,38.542 141.506 C 38.610 141.503,38.667 182.188,38.667 231.917 L 38.667 322.333 29.052 322.333 C 14.943 322.333,14.114 322.635,12.988 328.173 C 12.550 330.328,12.613 354.258,13.063 356.620 C 13.596 359.416,15.494 360.938,18.833 361.246 C 19.521 361.309,56.377 361.374,100.736 361.389 L 181.390 361.417 181.687 361.917 C 181.850 362.192,182.139 362.717,182.328 363.083 C 182.955 364.299,184.706 366.847,185.570 367.800 C 190.823 373.600,195.169 374.882,208.250 374.487 C 210.725 374.412,214.419 374.299,216.458 374.236 L 220.167 374.120 220.167 375.102 C 220.167 376.974,220.872 379.434,222.169 382.086 C 223.027 383.839,224.928 386.833,225.184 386.833 C 225.266 386.833,225.333 386.901,225.333 386.983 C 225.333 387.462,230.855 393.000,231.333 393.000 C 231.410 393.000,231.497 393.057,231.528 393.126 C 231.675 393.462,237.051 397.000,237.413 397.000 C 237.457 397.000,238.114 397.289,238.872 397.643 C 239.630 397.997,240.550 398.382,240.917 398.498 C 241.283 398.615,241.846 398.808,242.167 398.928 C 242.487 399.047,243.125 399.224,243.583 399.321 C 244.042 399.417,244.909 399.610,245.511 399.748 C 246.355 399.943,247.734 400.000,251.561 400.000 C 256.538 400.000,256.870 399.972,259.667 399.309 C 261.964 398.765,265.338 397.346,267.500 396.014 C 268.096 395.648,268.807 395.221,269.081 395.066 C 271.456 393.722,275.655 389.938,277.663 387.333 C 277.981 386.921,278.290 386.546,278.349 386.500 C 278.598 386.308,280.407 383.399,280.969 382.287 C 282.146 379.957,282.889 377.509,283.091 375.292 L 283.193 374.167 296.751 374.167 L 310.309 374.167 310.411 375.042 C 310.467 375.523,310.538 376.142,310.570 376.417 C 310.926 379.531,313.560 384.927,315.958 387.453 C 316.165 387.671,316.333 387.885,316.333 387.929 C 316.333 388.206,319.165 391.023,321.017 392.588 C 321.710 393.173,323.930 394.788,324.434 395.072 C 324.699 395.222,325.254 395.553,325.667 395.809 C 328.118 397.325,331.390 398.728,333.833 399.310 C 336.774 400.011,336.982 400.027,342.440 399.957 C 345.588 399.917,347.987 399.816,348.333 399.709 C 348.654 399.609,349.329 399.438,349.833 399.329 C 351.095 399.055,353.233 398.299,354.744 397.591 C 355.439 397.266,356.045 397.000,356.090 397.000 C 356.135 397.000,356.667 396.700,357.270 396.333 C 357.874 395.967,358.398 395.667,358.435 395.667 C 358.554 395.667,361.743 393.477,361.917 393.276 C 362.008 393.170,362.608 392.658,363.250 392.139 C 367.195 388.945,370.517 384.462,372.246 380.000 C 372.406 379.587,372.603 379.079,372.684 378.870 C 372.978 378.111,373.333 376.061,373.333 375.125 L 373.333 374.167 378.823 374.167 C 383.086 374.167,384.548 374.112,385.365 373.920 C 389.920 372.852,394.042 369.923,397.036 365.628 C 398.149 364.031,398.975 362.220,399.521 360.182 L 399.994 358.417 399.997 337.905 C 400.000 316.222,400.038 317.472,399.302 314.917 C 398.750 313.003,395.252 307.028,394.179 306.167 C 394.121 306.121,393.814 305.747,393.496 305.336 C 393.177 304.925,392.804 304.468,392.667 304.320 C 392.438 304.073,391.543 303.025,390.500 301.781 C 390.271 301.508,389.971 301.161,389.833 301.011 C 389.696 300.861,389.175 300.253,388.677 299.661 C 388.178 299.068,387.688 298.508,387.587 298.417 C 387.487 298.325,386.884 297.575,386.249 296.750 C 385.613 295.925,385.051 295.212,385.000 295.167 C 384.950 295.121,384.647 294.746,384.329 294.334 C 384.011 293.922,383.625 293.434,383.472 293.251 C 383.319 293.067,382.694 292.279,382.082 291.500 C 381.471 290.721,380.698 289.754,380.365 289.351 C 380.031 288.948,379.544 288.349,379.282 288.019 C 377.084 285.254,372.791 280.805,370.244 278.655 C 368.763 277.404,365.790 275.167,365.609 275.167 C 365.557 275.167,365.246 274.984,364.917 274.761 C 363.612 273.875,360.098 272.312,358.333 271.832 C 357.921 271.720,357.358 271.559,357.083 271.475 C 355.067 270.857,353.899 270.833,325.054 270.833 L 297.000 270.833 297.000 264.502 L 297.000 258.171 346.208 258.125 C 392.878 258.081,395.454 258.063,396.146 257.783 C 398.030 257.019,398.924 256.045,399.734 253.872 C 399.976 253.223,400.000 243.859,400.000 148.751 L 400.000 44.342 399.546 43.380 C 399.154 42.547,397.792 40.411,397.498 40.167 C 397.442 40.121,397.289 39.926,397.157 39.735 C 395.721 37.650,390.710 32.406,384.828 26.833 C 381.309 23.498,376.385 18.577,373.312 15.322 C 368.186 9.894,364.173 6.019,361.155 3.584 C 360.474 3.034,359.879 2.537,359.833 2.480 C 359.654 2.256,356.855 0.500,356.677 0.500 C 356.573 0.500,356.316 0.387,356.105 0.249 C 355.766 0.027,348.968 0.003,296.153 0.041 L 236.583 0.083 235.655 0.519 C 233.027 1.753,231.908 4.639,231.947 10.083 C 231.957 11.550,232.018 19.822,232.081 28.466 L 232.197 44.181 231.390 43.632 C 230.946 43.330,230.546 43.045,230.500 42.999 C 230.209 42.705,229.159 42.000,229.011 42.000 C 228.913 42.000,228.833 41.943,228.833 41.873 C 228.833 41.803,228.533 41.560,228.167 41.333 C 227.800 41.107,227.500 40.864,227.500 40.794 C 227.500 40.724,227.426 40.667,227.336 40.667 C 227.246 40.667,225.154 39.204,222.688 37.417 C 220.221 35.629,218.158 34.167,218.104 34.167 C 218.008 34.167,217.514 33.789,217.103 33.401 C 216.996 33.301,216.573 33.008,216.163 32.751 C 215.752 32.494,215.379 32.235,215.333 32.175 C 215.287 32.115,214.884 31.822,214.438 31.525 C 213.991 31.227,212.153 29.923,210.354 28.627 C 208.555 27.331,206.633 25.947,206.083 25.551 C 205.533 25.156,204.993 24.757,204.882 24.666 C 204.771 24.575,204.609 24.500,204.521 24.500 C 204.433 24.500,204.336 24.436,204.306 24.359 C 204.275 24.281,203.974 24.037,203.637 23.817 C 203.300 23.597,202.175 22.806,201.137 22.060 C 200.099 21.314,198.200 19.950,196.917 19.029 C 195.633 18.108,194.493 17.275,194.382 17.177 C 194.271 17.080,194.103 17.000,194.007 17.000 C 193.911 17.000,193.833 16.941,193.833 16.869 C 193.833 16.797,193.590 16.595,193.292 16.419 C 192.994 16.243,192.446 15.871,192.075 15.591 C 191.704 15.312,191.216 14.954,190.992 14.795 C 189.407 13.676,183.550 9.479,183.408 9.361 C 183.311 9.281,182.899 8.998,182.491 8.733 C 182.084 8.468,181.654 8.159,181.536 8.048 C 181.418 7.936,181.099 7.714,180.827 7.553 C 180.556 7.393,180.333 7.203,180.333 7.131 C 180.333 7.059,180.255 7.000,180.160 7.000 C 180.064 7.000,179.895 6.924,179.785 6.831 C 179.674 6.739,179.088 6.307,178.483 5.873 C 177.878 5.439,176.869 4.708,176.240 4.250 C 170.845 0.317,168.686 -0.493,165.833 0.343 M348.167 29.389 C 348.167 48.053,348.119 47.385,349.609 49.500 C 351.263 51.849,351.011 51.821,370.458 51.827 L 386.833 51.833 386.833 148.417 L 386.833 245.000 341.917 245.000 L 297.000 245.000 297.000 193.236 C 297.000 164.766,297.056 141.499,297.125 141.532 C 297.850 141.878,300.977 144.075,302.357 145.208 C 302.775 145.552,303.197 145.833,303.295 145.833 C 303.392 145.833,303.497 145.890,303.528 145.958 C 303.946 146.899,308.293 148.489,310.467 148.496 L 311.684 148.500 312.967 147.552 C 313.673 147.031,314.334 146.525,314.436 146.427 C 314.539 146.330,314.839 146.069,315.103 145.848 C 317.632 143.733,319.936 141.573,324.003 137.505 C 327.825 133.681,329.292 132.123,330.991 130.083 C 331.373 129.625,331.819 129.100,331.982 128.917 C 332.573 128.253,334.432 125.562,334.918 124.667 C 336.352 122.029,334.705 117.783,331.515 115.899 C 331.232 115.732,331.000 115.536,331.000 115.464 C 331.000 115.392,330.894 115.333,330.764 115.333 C 330.634 115.333,330.503 115.277,330.472 115.208 C 330.442 115.140,329.968 114.783,329.420 114.417 C 328.871 114.050,328.346 113.693,328.253 113.624 C 327.315 112.929,325.858 111.969,325.625 111.891 C 325.465 111.838,325.333 111.744,325.333 111.683 C 325.333 111.622,325.090 111.429,324.792 111.255 C 324.083 110.841,321.099 108.627,321.028 108.461 C 320.997 108.391,320.866 108.333,320.736 108.333 C 320.606 108.333,320.500 108.275,320.500 108.203 C 320.500 108.131,320.278 107.941,320.006 107.780 C 319.734 107.620,319.416 107.393,319.298 107.277 C 319.180 107.160,318.371 106.546,317.500 105.911 C 315.431 104.403,314.484 103.699,314.123 103.406 C 313.962 103.274,313.788 103.167,313.736 103.167 C 313.685 103.167,313.544 103.073,313.423 102.958 C 312.923 102.483,312.486 102.167,312.331 102.167 C 312.241 102.167,312.167 102.105,312.167 102.031 C 312.167 101.956,311.885 101.726,311.542 101.521 C 311.198 101.315,310.692 100.982,310.417 100.781 C 310.142 100.580,308.867 99.666,307.583 98.751 C 304.976 96.892,303.847 96.075,303.549 95.831 C 303.438 95.741,303.269 95.667,303.174 95.667 C 303.078 95.667,303.000 95.608,303.000 95.536 C 303.000 95.464,302.778 95.274,302.506 95.113 C 302.234 94.953,301.914 94.724,301.794 94.604 C 301.674 94.484,301.240 94.175,300.830 93.918 C 300.419 93.661,300.046 93.402,300.000 93.342 C 299.954 93.283,299.654 93.054,299.333 92.833 C 299.012 92.613,298.712 92.388,298.667 92.333 C 298.621 92.277,298.300 92.060,297.954 91.850 C 297.608 91.639,297.233 91.379,297.121 91.271 C 297.008 91.163,296.317 90.656,295.583 90.145 C 294.328 89.269,275.942 75.997,275.583 75.709 C 275.492 75.635,274.779 75.129,274.000 74.585 C 273.221 74.041,272.558 73.537,272.528 73.464 C 272.497 73.392,272.366 73.333,272.236 73.333 C 272.106 73.333,272.000 73.275,272.000 73.203 C 272.000 73.131,271.756 72.928,271.458 72.752 C 270.955 72.456,269.809 71.631,269.123 71.072 C 268.962 70.941,268.788 70.833,268.736 70.833 C 268.685 70.833,268.540 70.740,268.414 70.625 C 268.288 70.510,267.525 69.945,266.718 69.370 C 265.910 68.794,262.867 66.602,259.955 64.499 C 257.043 62.396,254.516 60.598,254.338 60.503 C 254.161 60.408,253.431 59.917,252.716 59.413 C 252.001 58.909,251.014 58.216,250.521 57.873 C 250.029 57.530,249.528 57.156,249.408 57.042 C 249.288 56.927,249.155 56.833,249.112 56.833 C 248.854 56.833,246.201 54.289,245.696 53.558 L 245.333 53.032 245.333 33.099 L 245.333 13.167 296.750 13.167 L 348.167 13.167 348.167 29.389 M170.083 16.752 C 173.111 18.621,177.612 21.814,185.283 27.533 C 187.227 28.981,188.895 30.167,188.992 30.167 C 189.088 30.167,189.167 30.225,189.167 30.297 C 189.167 30.369,189.389 30.559,189.661 30.720 C 189.932 30.880,190.251 31.103,190.369 31.214 C 190.829 31.649,191.820 32.333,191.989 32.333 C 192.087 32.333,192.167 32.392,192.167 32.464 C 192.167 32.536,192.389 32.726,192.661 32.887 C 192.932 33.047,193.257 33.281,193.383 33.407 C 193.578 33.601,194.895 34.510,195.812 35.083 C 195.959 35.175,196.201 35.381,196.351 35.542 C 196.500 35.702,196.707 35.833,196.811 35.833 C 196.915 35.833,197.000 35.892,197.000 35.964 C 197.000 36.036,197.244 36.239,197.542 36.414 C 198.039 36.708,199.182 37.529,199.864 38.083 C 200.018 38.209,200.356 38.447,200.614 38.614 C 201.030 38.882,219.664 52.293,220.083 52.626 C 220.175 52.699,220.850 53.187,221.583 53.711 C 222.317 54.235,223.007 54.740,223.118 54.832 C 223.229 54.924,223.397 55.000,223.493 55.000 C 223.589 55.000,223.667 55.059,223.667 55.131 C 223.667 55.203,223.873 55.384,224.125 55.533 C 224.377 55.682,224.808 55.999,225.083 56.237 C 225.358 56.474,225.715 56.711,225.875 56.762 C 226.035 56.814,226.167 56.926,226.167 57.011 C 226.167 57.097,226.279 57.167,226.417 57.167 C 226.554 57.167,226.667 57.225,226.667 57.297 C 226.667 57.369,226.889 57.559,227.161 57.720 C 227.432 57.880,227.753 58.110,227.873 58.230 C 227.993 58.350,228.425 58.659,228.833 58.917 C 229.242 59.174,229.674 59.484,229.794 59.604 C 229.914 59.724,230.234 59.953,230.506 60.113 C 230.778 60.274,231.000 60.464,231.000 60.536 C 231.000 60.608,231.078 60.667,231.174 60.667 C 231.269 60.667,231.438 60.743,231.549 60.836 C 231.758 61.013,232.190 61.323,234.833 63.199 C 235.704 63.816,236.492 64.383,236.583 64.457 C 236.675 64.531,237.350 65.020,238.083 65.544 C 238.817 66.069,239.492 66.558,239.583 66.631 C 239.717 66.738,249.970 74.157,251.250 75.072 C 253.252 76.504,253.948 77.010,254.118 77.158 C 254.229 77.255,254.391 77.333,254.479 77.333 C 254.567 77.333,254.664 77.390,254.694 77.459 C 254.725 77.528,255.237 77.938,255.833 78.370 C 256.429 78.802,257.007 79.233,257.118 79.328 C 257.229 79.423,257.359 79.500,257.408 79.500 C 257.456 79.500,257.628 79.608,257.790 79.739 C 258.456 80.282,259.647 81.145,259.966 81.315 C 260.154 81.416,260.407 81.596,260.529 81.715 C 260.650 81.835,261.125 82.188,261.583 82.500 C 262.042 82.812,262.507 83.146,262.618 83.242 C 262.728 83.338,263.328 83.772,263.951 84.207 C 266.235 85.801,285.048 99.421,285.834 100.050 C 287.041 101.015,287.491 101.333,287.649 101.333 C 287.750 101.333,287.834 101.390,287.834 101.458 C 287.835 101.527,288.116 101.770,288.459 101.999 C 288.803 102.227,289.121 102.456,289.167 102.509 C 289.282 102.640,302.886 112.468,303.917 113.165 C 304.375 113.475,304.787 113.778,304.833 113.839 C 304.879 113.900,305.250 114.159,305.658 114.415 C 306.066 114.670,307.059 115.357,307.865 115.940 C 308.671 116.523,309.400 117.000,309.485 117.000 C 309.570 117.000,309.664 117.061,309.694 117.135 C 309.743 117.253,311.207 118.292,311.972 118.750 C 312.125 118.842,312.287 118.957,312.333 119.006 C 312.551 119.241,314.516 120.500,314.665 120.500 C 314.757 120.500,314.833 120.558,314.833 120.629 C 314.833 120.700,315.115 120.905,315.458 121.086 C 315.802 121.266,316.121 121.460,316.167 121.518 C 316.212 121.575,316.700 121.870,317.250 122.173 C 317.800 122.477,318.274 122.743,318.304 122.764 C 318.880 123.175,313.561 129.178,310.230 131.875 C 308.821 133.015,308.888 133.008,307.750 132.167 C 307.254 131.800,306.769 131.500,306.674 131.500 C 306.578 131.500,306.500 131.441,306.500 131.369 C 306.500 131.297,306.278 131.107,306.006 130.947 C 305.734 130.786,305.416 130.562,305.298 130.448 C 305.180 130.334,303.958 129.420,302.583 128.417 C 301.208 127.414,300.046 126.550,300.000 126.497 C 299.954 126.444,299.654 126.218,299.333 125.994 C 299.012 125.771,298.637 125.498,298.500 125.388 C 297.776 124.810,296.687 124.030,296.208 123.748 C 295.910 123.572,295.667 123.369,295.667 123.297 C 295.667 123.225,295.589 123.167,295.493 123.167 C 295.397 123.167,295.229 123.091,295.118 122.998 C 295.007 122.905,294.392 122.451,293.750 121.989 C 293.108 121.527,292.330 120.947,292.021 120.700 C 291.589 120.355,282.919 114.059,281.083 112.758 C 280.107 112.066,278.391 110.816,278.215 110.669 C 278.105 110.576,277.942 110.500,277.854 110.500 C 277.766 110.500,277.669 110.442,277.639 110.372 C 277.571 110.214,275.761 108.871,269.833 104.579 C 265.237 101.250,263.969 100.322,263.496 99.940 C 263.357 99.827,262.869 99.479,262.413 99.166 C 261.957 98.853,261.439 98.464,261.262 98.300 C 261.086 98.137,260.804 97.960,260.637 97.907 C 260.470 97.854,260.333 97.759,260.333 97.695 C 260.333 97.631,260.033 97.393,259.667 97.167 C 259.300 96.940,259.000 96.697,259.000 96.627 C 259.000 96.557,258.887 96.500,258.750 96.500 C 258.612 96.500,258.500 96.441,258.500 96.369 C 258.500 96.297,258.294 96.115,258.042 95.963 C 257.790 95.811,257.396 95.538,257.167 95.355 C 256.025 94.446,253.979 93.000,253.832 93.000 C 253.741 93.000,253.667 92.941,253.667 92.869 C 253.667 92.797,253.444 92.607,253.173 92.447 C 252.901 92.286,252.582 92.060,252.464 91.944 C 252.281 91.763,236.965 80.648,230.276 75.841 C 229.070 74.974,227.987 74.170,227.869 74.055 C 227.751 73.939,227.432 73.714,227.161 73.553 C 226.889 73.393,226.667 73.203,226.667 73.131 C 226.667 73.059,226.554 73.000,226.417 73.000 C 226.279 73.000,226.167 72.941,226.167 72.869 C 226.167 72.797,225.944 72.607,225.673 72.447 C 225.401 72.286,225.081 72.057,224.961 71.937 C 224.841 71.817,224.408 71.508,224.000 71.250 C 223.592 70.992,223.159 70.683,223.039 70.563 C 222.919 70.443,222.599 70.214,222.327 70.053 C 222.056 69.893,221.833 69.703,221.833 69.631 C 221.833 69.559,221.727 69.500,221.597 69.500 C 221.467 69.500,221.336 69.442,221.306 69.372 C 221.243 69.226,217.386 66.333,217.255 66.333 C 217.209 66.333,217.038 66.224,216.877 66.091 C 216.312 65.625,213.692 63.715,206.417 58.465 C 202.383 55.555,199.008 53.113,198.917 53.039 C 198.825 52.965,197.100 51.710,195.083 50.249 C 191.445 47.613,190.147 46.663,189.667 46.278 C 189.529 46.169,189.154 45.893,188.833 45.667 C 188.512 45.440,188.116 45.141,187.953 45.002 C 187.790 44.864,187.361 44.592,186.999 44.398 C 186.638 44.205,186.375 44.014,186.414 43.975 C 186.453 43.935,186.189 43.720,185.826 43.496 C 185.463 43.271,185.167 43.031,185.167 42.961 C 185.167 42.891,185.054 42.833,184.917 42.833 C 184.779 42.833,184.667 42.775,184.667 42.703 C 184.667 42.631,184.444 42.441,184.173 42.280 C 183.901 42.120,183.582 41.897,183.464 41.786 C 183.004 41.351,182.013 40.667,181.844 40.667 C 181.747 40.667,181.667 40.598,181.667 40.514 C 181.667 40.429,181.385 40.189,181.042 39.979 C 180.698 39.769,180.392 39.538,180.361 39.465 C 180.331 39.393,180.206 39.333,180.083 39.333 C 179.961 39.333,179.836 39.276,179.806 39.207 C 179.716 39.003,174.131 34.903,173.000 34.211 C 168.694 31.575,165.699 31.784,161.083 35.042 C 160.717 35.300,160.117 35.708,159.750 35.948 C 159.383 36.187,159.058 36.447,159.028 36.525 C 158.997 36.603,158.883 36.667,158.773 36.667 C 158.663 36.667,158.465 36.817,158.333 37.000 C 158.201 37.183,158.011 37.333,157.911 37.333 C 157.811 37.333,157.584 37.465,157.406 37.626 C 157.229 37.787,156.371 38.439,155.500 39.076 C 154.629 39.712,153.797 40.350,153.650 40.492 C 153.167 40.959,140.789 50.038,138.583 51.543 C 138.033 51.918,137.546 52.271,137.500 52.328 C 137.454 52.384,135.917 53.507,134.083 54.823 C 132.250 56.138,130.675 57.299,130.583 57.402 C 130.492 57.505,129.404 58.329,128.167 59.235 C 126.929 60.140,125.892 60.945,125.861 61.024 C 125.831 61.102,125.699 61.167,125.569 61.167 C 125.440 61.167,125.333 61.225,125.333 61.297 C 125.333 61.369,125.111 61.559,124.839 61.720 C 124.568 61.880,124.249 62.105,124.131 62.219 C 124.013 62.333,122.079 63.760,119.833 65.389 C 117.587 67.018,115.563 68.501,115.333 68.686 C 115.104 68.870,114.710 69.145,114.458 69.296 C 114.206 69.448,114.000 69.631,114.000 69.703 C 114.000 69.775,113.904 69.833,113.787 69.833 C 113.670 69.833,113.328 70.058,113.027 70.333 C 112.726 70.608,112.442 70.833,112.395 70.833 C 112.270 70.833,111.092 71.730,111.028 71.875 C 110.997 71.944,110.898 72.000,110.808 72.000 C 110.717 72.000,110.544 72.094,110.423 72.208 C 110.015 72.596,109.497 73.000,109.408 73.000 C 109.359 73.000,109.229 73.076,109.118 73.169 C 109.007 73.261,108.392 73.714,107.750 74.175 C 107.108 74.636,106.451 75.123,106.290 75.257 C 106.128 75.391,105.957 75.500,105.909 75.500 C 105.862 75.500,105.281 75.901,104.620 76.392 C 102.585 77.901,95.461 83.035,94.667 83.565 C 94.254 83.841,93.879 84.115,93.833 84.175 C 93.787 84.235,93.414 84.494,93.004 84.751 C 92.593 85.008,92.156 85.320,92.032 85.444 C 91.909 85.568,91.668 85.743,91.499 85.834 C 91.329 85.925,89.103 87.502,86.553 89.339 C 84.003 91.175,81.733 92.807,81.508 92.964 C 81.284 93.121,80.796 93.479,80.425 93.758 C 80.054 94.038,79.506 94.410,79.208 94.586 C 78.910 94.761,78.667 94.964,78.667 95.036 C 78.667 95.108,78.589 95.167,78.493 95.167 C 78.397 95.167,78.229 95.246,78.118 95.343 C 78.007 95.439,77.017 96.163,75.917 96.952 C 72.273 99.562,57.880 109.966,57.530 110.243 C 57.409 110.338,57.165 110.548,56.988 110.708 C 56.811 110.869,56.630 111.000,56.585 111.000 C 56.540 111.000,56.372 111.108,56.210 111.239 C 55.765 111.602,54.666 112.414,51.917 114.411 C 50.542 115.410,49.379 116.273,49.333 116.330 C 49.288 116.386,48.987 116.616,48.667 116.839 C 48.346 117.062,47.971 117.340,47.833 117.455 C 47.595 117.654,46.264 118.650,43.153 120.958 C 42.382 121.530,41.675 122.058,41.583 122.131 C 41.492 122.204,41.042 122.518,40.583 122.829 C 40.125 123.140,39.712 123.443,39.667 123.502 C 39.621 123.560,39.340 123.750,39.042 123.923 C 38.744 124.097,38.500 124.297,38.500 124.369 C 38.500 124.441,38.387 124.500,38.250 124.500 C 38.112 124.500,38.000 124.559,38.000 124.631 C 38.000 124.703,37.794 124.885,37.542 125.037 C 37.290 125.189,36.896 125.462,36.667 125.645 C 36.438 125.828,35.575 126.473,34.750 127.079 C 33.925 127.685,33.137 128.273,33.000 128.385 C 32.862 128.497,32.487 128.772,32.167 128.997 C 31.846 129.222,31.487 129.499,31.369 129.614 C 31.251 129.728,30.932 129.953,30.661 130.113 C 30.389 130.274,30.167 130.464,30.167 130.536 C 30.167 130.608,30.054 130.667,29.917 130.667 C 29.779 130.667,29.667 130.728,29.667 130.803 C 29.667 130.877,29.368 131.107,29.003 131.312 C 28.638 131.517,28.242 131.774,28.123 131.884 C 26.917 132.999,26.683 133.013,25.530 132.042 C 22.468 129.461,20.130 127.069,18.470 124.816 C 17.195 123.086,17.076 122.762,17.622 122.513 C 18.303 122.202,21.723 119.978,21.806 119.792 C 21.836 119.723,21.922 119.667,21.997 119.667 C 22.144 119.667,24.865 117.851,26.285 116.806 C 26.762 116.454,27.231 116.167,27.326 116.167 C 27.422 116.167,27.500 116.108,27.500 116.036 C 27.500 115.964,27.742 115.762,28.038 115.587 C 28.334 115.412,29.365 114.698,30.330 113.999 C 31.294 113.300,32.327 112.586,32.625 112.412 C 32.923 112.237,33.167 112.036,33.167 111.964 C 33.167 111.892,33.243 111.833,33.336 111.833 C 33.429 111.833,34.723 110.948,36.211 109.866 C 37.699 108.784,39.292 107.645,39.750 107.335 C 40.208 107.025,40.621 106.729,40.667 106.676 C 40.712 106.623,41.084 106.364,41.491 106.099 C 41.899 105.835,42.311 105.553,42.408 105.472 C 42.504 105.391,45.096 103.523,48.167 101.320 C 51.237 99.117,54.237 96.958,54.833 96.521 C 55.429 96.085,56.292 95.474,56.750 95.164 C 57.208 94.853,57.683 94.501,57.805 94.382 C 57.926 94.262,58.180 94.082,58.367 93.982 C 58.686 93.811,59.877 92.949,60.544 92.406 C 60.705 92.274,60.905 92.167,60.988 92.167 C 61.071 92.167,61.164 92.108,61.194 92.036 C 61.225 91.963,61.887 91.460,62.667 90.916 C 63.446 90.373,64.169 89.850,64.273 89.756 C 64.718 89.351,65.177 89.000,65.259 89.000 C 65.308 89.000,65.438 88.924,65.549 88.831 C 65.659 88.739,66.275 88.286,66.917 87.825 C 67.558 87.364,68.215 86.877,68.377 86.743 C 68.538 86.609,68.710 86.500,68.759 86.500 C 68.808 86.500,68.938 86.421,69.049 86.325 C 69.159 86.229,69.775 85.775,70.417 85.316 C 71.058 84.858,71.771 84.332,72.000 84.148 C 72.229 83.963,72.623 83.689,72.875 83.537 C 73.127 83.385,73.333 83.203,73.333 83.131 C 73.333 83.059,73.408 83.000,73.499 83.000 C 73.640 83.000,74.613 82.317,76.901 80.611 C 77.168 80.413,77.481 80.156,77.598 80.042 C 77.714 79.927,77.856 79.833,77.912 79.833 C 77.968 79.833,78.105 79.757,78.215 79.665 C 78.326 79.572,78.942 79.119,79.583 78.658 C 80.225 78.197,80.882 77.710,81.044 77.577 C 81.205 77.443,81.411 77.333,81.502 77.333 C 81.593 77.333,81.667 77.275,81.667 77.203 C 81.667 77.131,81.873 76.948,82.125 76.797 C 82.377 76.646,82.733 76.405,82.917 76.262 C 83.100 76.118,83.775 75.623,84.417 75.160 C 85.058 74.698,85.698 74.226,85.837 74.111 C 85.977 73.996,86.464 73.646,86.920 73.333 C 87.377 73.020,87.895 72.629,88.073 72.465 C 88.251 72.301,88.447 72.167,88.509 72.167 C 88.571 72.167,88.875 71.942,89.186 71.668 C 89.496 71.394,89.881 71.127,90.042 71.074 C 90.202 71.021,90.333 70.908,90.333 70.822 C 90.333 70.737,90.407 70.667,90.498 70.667 C 90.589 70.667,90.795 70.558,90.956 70.425 C 91.318 70.126,94.067 68.102,96.083 66.648 C 96.908 66.053,104.408 60.625,112.750 54.586 C 121.092 48.547,131.329 41.136,135.500 38.117 C 139.671 35.099,143.108 32.563,143.139 32.481 C 143.169 32.400,143.266 32.333,143.354 32.333 C 143.442 32.333,144.130 31.878,144.882 31.321 C 145.634 30.765,146.400 30.200,146.583 30.068 C 147.675 29.277,151.401 26.600,155.583 23.603 C 156.958 22.618,158.215 21.704,158.377 21.572 C 158.538 21.441,158.707 21.333,158.751 21.333 C 158.796 21.333,159.349 20.964,159.982 20.513 C 161.544 19.398,164.329 17.500,164.402 17.500 C 164.435 17.500,164.902 17.208,165.439 16.852 C 167.804 15.284,167.710 15.286,170.083 16.752 M374.566 35.875 L 377.249 38.500 373.166 38.500 C 370.921 38.501,367.340 38.550,365.208 38.610 L 361.333 38.720 361.333 30.839 L 361.333 22.959 366.608 28.104 C 369.510 30.934,373.091 34.431,374.566 35.875 M169.781 48.596 C 170.267 48.907,171.622 49.892,172.791 50.785 C 173.960 51.678,176.192 53.327,177.750 54.449 C 179.308 55.572,180.674 56.567,180.785 56.662 C 180.895 56.756,181.058 56.833,181.146 56.833 C 181.234 56.833,181.331 56.895,181.361 56.970 C 181.392 57.046,183.779 58.818,186.667 60.909 C 192.828 65.371,193.731 66.041,193.806 66.208 C 193.836 66.277,193.967 66.333,194.097 66.333 C 194.227 66.333,194.333 66.391,194.333 66.461 C 194.333 66.531,194.633 66.773,195.000 67.000 C 195.367 67.227,195.667 67.469,195.667 67.539 C 195.667 67.609,195.773 67.667,195.903 67.667 C 196.033 67.667,196.164 67.724,196.194 67.795 C 196.263 67.953,197.744 69.050,205.667 74.807 C 209.104 77.306,212.329 79.665,212.833 80.050 C 213.337 80.435,217.874 83.730,222.916 87.372 C 227.958 91.015,232.174 94.071,232.285 94.164 C 232.395 94.257,232.564 94.333,232.660 94.333 C 232.755 94.333,232.833 94.392,232.833 94.464 C 232.833 94.536,233.072 94.736,233.363 94.907 C 233.654 95.079,234.010 95.316,234.154 95.433 C 235.033 96.144,241.703 100.833,241.837 100.833 C 241.927 100.833,242.000 100.892,242.000 100.964 C 242.000 101.036,242.244 101.237,242.542 101.410 C 242.840 101.583,243.121 101.771,243.167 101.828 C 243.213 101.885,243.737 102.270,244.333 102.685 C 245.897 103.773,251.531 107.813,251.873 108.091 C 252.032 108.221,252.481 108.527,252.869 108.773 C 253.258 109.018,253.677 109.320,253.801 109.444 C 253.925 109.568,254.170 109.746,254.347 109.841 C 254.524 109.935,256.321 111.210,258.342 112.673 C 260.363 114.136,262.081 115.333,262.161 115.333 C 262.240 115.333,262.331 115.398,262.361 115.477 C 262.392 115.556,263.954 116.735,265.833 118.096 C 269.467 120.729,270.562 121.535,271.061 121.942 C 271.232 122.082,272.207 122.806,273.228 123.551 C 274.248 124.296,275.121 124.949,275.167 125.002 C 275.212 125.056,275.512 125.280,275.833 125.500 C 276.154 125.720,276.454 125.945,276.500 125.999 C 276.546 126.053,277.333 126.653,278.250 127.333 C 279.167 128.013,279.954 128.615,280.000 128.671 C 280.046 128.727,280.529 129.100,281.073 129.499 C 282.550 130.581,282.823 130.846,283.308 131.667 L 283.750 132.417 283.792 201.625 L 283.835 270.833 280.292 270.839 C 276.591 270.845,271.071 271.178,269.500 271.490 C 268.996 271.590,268.171 271.751,267.667 271.847 C 266.328 272.103,265.351 272.407,263.417 273.172 C 262.681 273.462,261.539 274.033,260.750 274.505 C 260.292 274.779,259.785 275.049,259.625 275.104 C 259.465 275.160,259.333 275.260,259.333 275.326 C 259.333 275.392,259.162 275.525,258.952 275.620 C 257.777 276.156,252.850 280.745,250.667 283.338 C 250.254 283.828,249.743 284.419,249.530 284.651 C 249.317 284.884,248.755 285.583,248.281 286.204 C 247.808 286.825,247.363 287.333,247.293 287.333 C 247.224 287.333,247.167 287.440,247.167 287.569 C 247.167 287.699,247.098 287.831,247.014 287.861 C 246.931 287.892,246.525 288.353,246.112 288.886 C 245.337 289.887,244.847 290.480,243.000 292.650 C 242.404 293.351,241.654 294.250,241.333 294.648 C 241.012 295.046,240.649 295.478,240.525 295.607 C 240.402 295.736,239.877 296.346,239.358 296.963 C 238.840 297.579,238.254 298.271,238.056 298.500 C 236.943 299.787,235.566 301.497,235.204 302.042 C 234.976 302.385,234.724 302.667,234.645 302.667 C 234.565 302.667,234.500 302.741,234.500 302.832 C 234.500 302.923,234.357 303.167,234.183 303.374 C 234.009 303.581,233.266 304.509,232.532 305.437 C 228.990 309.916,229.519 309.794,214.042 309.708 L 206.500 309.667 206.497 281.125 C 206.494 256.639,206.459 252.385,206.247 251.185 C 205.498 246.954,203.697 242.046,201.499 238.250 C 201.234 237.792,200.893 237.199,200.741 236.933 C 199.003 233.885,194.473 229.058,191.037 226.593 C 190.329 226.085,189.675 225.609,189.583 225.535 C 189.492 225.460,189.304 225.348,189.167 225.284 C 188.873 225.149,188.286 224.786,188.167 224.667 C 187.814 224.314,183.827 222.371,181.917 221.622 C 175.618 219.150,166.145 218.432,159.667 219.935 C 159.071 220.073,158.246 220.262,157.833 220.354 C 154.018 221.205,147.420 224.161,145.696 225.792 C 145.575 225.906,145.410 226.000,145.330 226.000 C 144.602 226.000,138.715 231.527,137.075 233.750 C 136.805 234.117,136.527 234.442,136.458 234.472 C 136.390 234.503,136.333 234.628,136.333 234.750 C 136.333 234.872,136.275 234.997,136.203 235.028 C 136.067 235.086,134.655 237.073,134.444 237.503 C 134.378 237.639,134.107 238.125,133.842 238.583 C 133.577 239.042,133.124 239.904,132.835 240.500 C 132.545 241.096,132.212 241.771,132.093 242.000 C 131.812 242.545,130.602 245.873,130.336 246.833 C 130.222 247.246,130.062 247.771,129.981 248.000 C 129.834 248.417,129.688 249.096,129.209 251.583 C 128.985 252.750,128.945 257.248,128.889 287.625 L 128.824 322.333 90.329 322.333 L 51.833 322.333 51.833 227.650 C 51.833 142.412,51.859 132.913,52.092 132.422 C 52.659 131.227,57.118 127.321,61.917 123.816 C 65.238 121.390,69.483 118.350,70.583 117.609 C 71.225 117.177,72.200 116.507,72.750 116.119 C 73.300 115.732,74.725 114.744,75.917 113.925 C 77.108 113.106,78.108 112.375,78.139 112.301 C 78.169 112.227,78.268 112.167,78.358 112.167 C 78.502 112.167,79.607 111.411,79.833 111.159 C 79.879 111.108,80.198 110.895,80.542 110.686 C 80.885 110.477,81.167 110.237,81.167 110.153 C 81.167 110.069,81.245 110.000,81.340 110.000 C 81.494 110.000,83.518 108.568,84.667 107.647 C 84.896 107.463,85.290 107.189,85.542 107.037 C 85.794 106.885,86.000 106.703,86.000 106.631 C 86.000 106.559,86.112 106.500,86.250 106.500 C 86.388 106.500,86.500 106.430,86.500 106.345 C 86.500 106.259,86.642 106.144,86.815 106.089 C 86.988 106.034,87.323 105.810,87.560 105.590 C 87.797 105.370,88.218 105.057,88.496 104.893 C 88.773 104.729,89.000 104.536,89.000 104.464 C 89.000 104.392,89.112 104.333,89.250 104.333 C 89.388 104.333,89.500 104.275,89.500 104.203 C 89.500 104.131,89.706 103.948,89.958 103.796 C 90.210 103.645,90.604 103.370,90.833 103.187 C 91.479 102.669,93.222 101.400,103.000 94.328 C 107.996 90.715,112.158 87.698,112.250 87.624 C 112.342 87.550,113.354 86.812,114.500 85.984 C 117.031 84.155,117.492 83.810,117.764 83.542 C 117.881 83.427,118.057 83.333,118.155 83.333 C 118.253 83.333,118.333 83.272,118.333 83.197 C 118.333 83.123,118.615 82.901,118.958 82.704 C 119.302 82.508,119.801 82.157,120.068 81.924 C 120.334 81.691,120.596 81.500,120.651 81.500 C 120.705 81.500,120.975 81.306,121.250 81.069 C 121.525 80.832,121.956 80.516,122.208 80.366 C 122.460 80.217,122.667 80.036,122.667 79.964 C 122.667 79.892,122.741 79.833,122.831 79.833 C 122.922 79.833,123.128 79.726,123.290 79.594 C 123.880 79.114,125.251 78.113,133.917 71.840 C 144.004 64.537,145.229 63.636,145.306 63.460 C 145.336 63.390,145.432 63.333,145.520 63.333 C 145.673 63.333,148.531 61.302,148.964 60.885 C 149.082 60.771,149.401 60.547,149.673 60.387 C 149.944 60.226,150.167 60.036,150.167 59.964 C 150.167 59.892,150.263 59.833,150.380 59.833 C 150.497 59.833,150.701 59.683,150.833 59.500 C 150.965 59.317,151.155 59.167,151.255 59.167 C 151.355 59.167,151.588 59.026,151.773 58.853 C 151.958 58.681,152.404 58.342,152.763 58.099 C 153.667 57.488,154.322 57.014,156.167 55.635 C 156.579 55.327,158.042 54.258,159.417 53.259 C 160.792 52.261,161.954 51.394,162.000 51.333 C 162.097 51.203,165.030 49.038,165.710 48.593 C 167.094 47.689,168.365 47.690,169.781 48.596 M161.833 77.511 C 161.329 77.585,160.467 77.687,159.917 77.737 C 158.615 77.855,156.855 78.123,155.500 78.410 C 154.904 78.536,153.967 78.730,153.417 78.840 C 152.401 79.044,152.213 79.090,150.000 79.688 C 148.352 80.134,143.852 81.652,143.206 81.980 C 143.047 82.061,142.729 82.205,142.500 82.299 C 139.900 83.366,134.643 86.038,134.528 86.350 C 134.497 86.432,134.400 86.500,134.311 86.500 C 134.223 86.500,133.723 86.781,133.200 87.124 C 132.678 87.468,132.171 87.786,132.074 87.833 C 131.588 88.064,128.667 90.239,128.667 90.369 C 128.667 90.452,128.605 90.481,128.529 90.434 C 128.453 90.387,128.167 90.552,127.894 90.799 C 127.621 91.047,127.140 91.448,126.824 91.689 C 124.585 93.403,120.409 97.488,118.497 99.833 C 118.086 100.337,117.707 100.787,117.656 100.833 C 117.604 100.879,117.229 101.367,116.823 101.917 C 116.417 102.467,116.042 102.954,115.990 103.000 C 115.938 103.046,115.642 103.458,115.333 103.917 C 115.025 104.375,114.730 104.787,114.678 104.833 C 114.585 104.916,113.623 106.367,112.912 107.500 C 112.710 107.821,112.196 108.683,111.769 109.417 C 111.342 110.150,110.924 110.862,110.840 111.000 C 110.582 111.423,108.725 115.075,108.699 115.210 C 108.686 115.280,108.479 115.768,108.241 116.294 C 108.002 116.820,107.729 117.438,107.634 117.667 C 107.539 117.896,107.395 118.214,107.314 118.373 C 107.058 118.876,105.584 123.130,105.335 124.083 C 105.264 124.358,105.018 125.296,104.788 126.167 C 104.559 127.037,104.292 128.200,104.194 128.750 C 104.096 129.300,103.903 130.387,103.766 131.167 C 102.961 135.717,102.959 143.390,103.761 150.000 C 104.249 154.018,104.386 154.862,105.007 157.667 C 105.098 158.079,105.202 158.567,105.238 158.750 C 105.314 159.136,105.848 161.098,106.305 162.667 C 107.542 166.920,110.089 172.453,112.632 176.417 C 113.593 177.914,115.435 180.532,115.833 180.965 C 115.977 181.122,116.370 181.613,116.707 182.057 C 118.829 184.850,125.196 191.234,127.016 192.391 C 127.282 192.561,127.500 192.767,127.500 192.850 C 127.500 192.932,127.612 193.000,127.750 193.000 C 127.888 193.000,128.000 193.059,128.000 193.131 C 128.000 193.258,130.688 195.247,131.766 195.917 C 136.209 198.679,139.630 200.496,142.583 201.663 C 143.317 201.952,144.048 202.260,144.208 202.346 C 144.477 202.491,146.756 203.284,147.330 203.433 C 147.469 203.469,148.146 203.678,148.833 203.898 C 152.101 204.941,156.056 205.758,160.750 206.358 C 161.797 206.492,164.400 206.571,167.750 206.571 C 171.100 206.571,173.703 206.492,174.750 206.358 C 177.057 206.063,179.396 205.687,180.583 205.421 C 181.133 205.297,182.033 205.106,182.583 204.996 C 183.133 204.886,183.921 204.701,184.333 204.585 C 184.746 204.469,185.421 204.281,185.833 204.166 C 197.556 200.913,209.267 193.407,217.000 184.189 C 217.412 183.698,217.837 183.204,217.942 183.092 C 218.048 182.980,218.634 182.220,219.245 181.403 C 219.855 180.585,220.444 179.803,220.552 179.664 C 221.012 179.077,223.337 175.463,223.554 175.000 C 223.618 174.862,223.817 174.525,223.996 174.250 C 224.761 173.077,227.255 167.792,228.164 165.417 C 228.234 165.233,228.383 164.859,228.494 164.584 C 229.601 161.855,231.168 155.778,231.652 152.333 C 232.365 147.271,232.379 147.062,232.377 141.917 C 232.376 136.819,232.312 135.917,231.648 131.583 C 231.431 130.163,231.051 128.234,230.746 127.000 C 230.622 126.496,230.433 125.708,230.327 125.250 C 229.839 123.140,228.329 118.750,227.174 116.083 C 226.783 115.180,224.282 110.187,224.002 109.750 C 223.826 109.475,223.549 108.987,223.388 108.667 C 223.101 108.097,220.526 104.166,220.332 104.000 C 220.278 103.954,220.051 103.654,219.828 103.333 C 219.604 103.013,219.330 102.638,219.218 102.500 C 219.107 102.362,218.656 101.800,218.216 101.249 C 212.519 94.118,204.556 87.744,196.583 83.934 C 195.483 83.408,194.458 82.911,194.304 82.829 C 193.953 82.641,192.055 81.851,191.500 81.662 C 191.271 81.583,190.446 81.285,189.667 80.998 C 188.887 80.711,188.025 80.419,187.750 80.348 C 187.475 80.277,186.725 80.063,186.083 79.874 C 183.213 79.026,180.565 78.418,178.590 78.155 C 177.952 78.070,177.315 77.967,177.174 77.925 C 177.032 77.884,176.392 77.806,175.750 77.751 C 175.108 77.697,174.096 77.582,173.500 77.496 C 172.195 77.308,163.126 77.319,161.833 77.511 M174.397 91.083 C 177.978 91.613,178.469 91.700,180.167 92.107 C 182.559 92.681,186.248 93.883,188.083 94.687 C 188.450 94.847,188.825 95.001,188.917 95.027 C 190.526 95.497,197.353 99.689,199.732 101.669 C 202.943 104.342,204.441 105.817,205.739 107.583 C 206.278 108.317,206.913 109.150,207.151 109.435 C 207.645 110.027,207.855 110.290,208.664 111.334 C 208.984 111.746,209.337 112.180,209.450 112.298 C 209.563 112.416,209.786 112.734,209.947 113.006 C 210.107 113.278,210.297 113.500,210.369 113.500 C 210.441 113.500,210.500 113.580,210.500 113.678 C 210.500 113.776,210.669 114.094,210.875 114.386 C 211.082 114.678,211.341 115.067,211.452 115.250 C 211.671 115.613,215.276 122.874,215.507 123.417 C 215.937 124.426,216.665 126.337,216.841 126.917 C 216.953 127.283,217.142 127.846,217.262 128.167 C 217.515 128.841,218.186 131.646,218.559 133.583 C 220.185 142.043,218.542 155.073,215.024 161.608 C 214.933 161.778,214.513 162.629,214.090 163.500 C 213.667 164.371,213.100 165.458,212.830 165.917 C 212.559 166.375,212.286 166.862,212.223 167.000 C 212.098 167.272,210.839 169.313,210.629 169.583 C 210.558 169.675,210.079 170.350,209.564 171.083 C 209.049 171.817,208.561 172.442,208.480 172.472 C 208.399 172.503,208.333 172.634,208.333 172.764 C 208.333 172.894,208.277 173.000,208.208 173.001 C 208.140 173.001,207.708 173.469,207.250 174.041 C 206.339 175.177,206.238 175.287,204.171 177.406 C 202.517 179.101,200.590 180.874,199.756 181.468 C 199.432 181.698,199.167 181.950,199.167 182.027 C 199.167 182.104,199.060 182.167,198.931 182.167 C 198.801 182.167,198.669 182.227,198.639 182.301 C 198.511 182.611,193.932 185.769,192.417 186.592 C 192.233 186.692,191.708 186.985,191.250 187.243 C 189.408 188.282,187.948 189.011,186.714 189.510 C 186.001 189.798,185.192 190.132,184.917 190.252 C 183.196 191.002,178.113 192.350,176.083 192.595 C 175.717 192.639,175.042 192.743,174.583 192.826 C 171.423 193.399,164.055 193.399,160.917 192.827 C 160.458 192.743,159.718 192.634,159.271 192.584 C 158.824 192.535,158.405 192.461,158.339 192.420 C 158.273 192.379,157.814 192.277,157.318 192.192 C 153.560 191.548,147.372 189.177,143.833 187.026 C 143.512 186.830,143.100 186.597,142.917 186.507 C 142.733 186.417,142.235 186.134,141.809 185.880 C 141.384 185.625,140.596 185.158,140.059 184.842 C 139.523 184.526,138.811 184.076,138.478 183.842 C 138.145 183.608,137.733 183.325,137.561 183.214 C 136.500 182.521,134.575 181.104,134.528 180.980 C 134.497 180.899,134.410 180.833,134.333 180.833 C 134.187 180.833,133.373 180.148,131.860 178.750 C 131.364 178.292,130.456 177.242,129.841 176.417 C 129.227 175.592,128.366 174.542,127.928 174.083 C 127.046 173.159,125.094 170.573,124.596 169.667 C 124.419 169.346,124.232 169.046,124.179 169.000 C 123.797 168.668,121.462 163.809,120.455 161.250 C 118.241 155.624,117.129 151.256,116.504 145.739 C 116.073 141.927,116.483 135.369,117.411 131.250 C 117.555 130.608,117.716 129.858,117.768 129.583 C 117.863 129.077,117.953 128.780,118.823 126.077 C 119.291 124.625,119.451 124.192,119.940 123.058 C 120.065 122.769,120.167 122.472,120.167 122.398 C 120.167 122.214,122.706 117.105,122.850 117.000 C 122.912 116.954,123.126 116.617,123.324 116.250 C 123.769 115.426,124.057 114.942,124.168 114.833 C 124.215 114.787,124.624 114.188,125.079 113.500 C 125.533 112.813,126.044 112.100,126.214 111.917 C 126.383 111.733,126.673 111.340,126.858 111.042 C 127.043 110.744,127.263 110.500,127.347 110.500 C 127.431 110.500,127.500 110.425,127.500 110.333 C 127.500 110.097,127.684 109.894,130.620 106.903 C 133.007 104.471,133.617 103.906,135.500 102.387 C 135.821 102.128,136.108 101.860,136.139 101.792 C 136.169 101.723,136.294 101.667,136.417 101.667 C 136.539 101.667,136.664 101.604,136.694 101.527 C 136.799 101.263,140.714 98.658,142.399 97.730 C 143.695 97.017,147.305 95.282,148.417 94.837 C 149.150 94.544,149.900 94.237,150.083 94.155 C 150.708 93.874,154.573 92.664,155.663 92.408 C 156.261 92.267,157.162 92.050,157.667 91.925 C 158.171 91.799,159.183 91.610,159.917 91.503 C 160.650 91.397,161.925 91.209,162.750 91.087 C 164.923 90.766,172.236 90.763,174.397 91.083 M193.705 157.167 C 193.705 157.487,193.740 157.619,193.782 157.458 C 193.823 157.298,193.823 157.035,193.782 156.875 C 193.740 156.715,193.705 156.846,193.705 157.167 M309.576 187.250 C 309.576 190.825,309.598 192.264,309.625 190.447 C 309.652 188.631,309.652 185.706,309.625 183.947 C 309.598 182.189,309.576 183.675,309.576 187.250 M68.917 193.690 C 67.091 194.290,65.952 195.237,65.137 196.833 L 64.583 197.917 64.583 225.833 L 64.583 253.750 65.107 254.750 C 65.942 256.344,66.737 257.065,68.500 257.822 C 69.214 258.128,109.249 258.308,111.150 258.013 C 113.986 257.573,115.879 255.565,116.183 252.675 C 116.256 251.983,116.315 239.904,116.315 225.833 C 116.315 211.762,116.256 199.684,116.183 198.991 C 115.907 196.367,114.386 194.506,111.903 193.752 C 110.912 193.452,69.824 193.393,68.917 193.690 M223.561 193.750 C 221.422 194.425,220.069 195.883,219.463 198.167 C 218.997 199.922,219.014 251.891,219.481 253.501 C 220.268 256.212,221.815 257.639,224.369 258.008 C 224.951 258.093,234.191 258.160,245.167 258.160 C 256.142 258.160,265.382 258.093,265.965 258.008 C 268.627 257.623,270.233 256.024,270.912 253.083 C 271.338 251.242,271.220 198.990,270.788 197.764 C 270.031 195.618,268.760 194.366,266.699 193.741 C 265.589 193.404,224.631 193.413,223.561 193.750 M309.576 212.750 C 309.576 216.325,309.598 217.764,309.625 215.947 C 309.652 214.131,309.652 211.206,309.625 209.447 C 309.598 207.689,309.576 209.175,309.576 212.750 M103.167 225.750 L 103.167 245.000 90.417 245.000 L 77.667 245.000 77.667 225.750 L 77.667 206.500 90.417 206.500 L 103.167 206.500 103.167 225.750 M258.000 225.750 L 258.000 245.000 245.167 245.000 L 232.333 245.000 232.333 225.750 L 232.333 206.500 245.167 206.500 L 258.000 206.500 258.000 225.750 M161.167 278.167 L 161.167 322.333 151.583 322.333 L 142.000 322.333 142.000 291.753 C 142.000 257.607,142.005 257.408,143.028 252.417 C 143.523 250.000,145.148 246.059,146.271 244.553 C 146.489 244.261,146.667 243.948,146.667 243.858 C 146.667 243.768,146.723 243.669,146.792 243.639 C 146.860 243.608,147.175 243.246,147.491 242.833 C 148.261 241.828,148.525 241.540,150.083 240.009 C 152.519 237.616,153.705 236.726,155.917 235.629 C 157.444 234.873,159.961 234.037,160.792 234.012 L 161.167 234.000 161.167 278.167 M176.114 234.316 C 181.423 235.604,187.420 240.675,190.067 246.113 C 190.506 247.013,190.938 247.890,191.029 248.061 C 191.313 248.598,192.373 251.997,192.594 253.083 C 193.528 257.660,193.500 256.695,193.500 283.922 C 193.500 311.745,193.585 309.636,192.422 310.624 C 191.384 311.505,191.183 311.648,190.220 312.183 C 188.747 313.002,187.142 314.001,186.882 314.260 C 186.755 314.388,186.521 314.588,186.362 314.705 C 186.203 314.821,185.764 315.292,185.385 315.750 C 184.787 316.475,184.474 316.969,183.591 318.583 C 182.926 319.799,181.869 321.253,181.289 321.750 L 180.607 322.333 177.470 322.333 L 174.333 322.333 174.333 278.167 C 174.333 239.884,174.365 234.000,174.573 234.000 C 174.704 234.000,175.398 234.142,176.114 234.316 M294.114 283.942 L 296.615 284.050 296.766 289.983 C 297.048 301.077,296.921 303.135,295.801 305.641 C 295.203 306.978,293.324 308.439,291.667 308.855 C 287.744 309.839,285.167 309.914,262.277 309.716 L 246.971 309.583 248.182 307.917 C 249.341 306.321,252.928 301.819,253.653 301.049 C 253.844 300.846,254.000 300.643,254.000 300.598 C 254.000 300.552,254.169 300.339,254.375 300.125 C 254.964 299.511,256.697 297.522,257.677 296.333 C 258.168 295.737,258.653 295.175,258.753 295.083 C 258.854 294.992,259.343 294.429,259.839 293.833 C 260.335 293.237,260.931 292.556,261.162 292.319 C 261.394 292.082,261.928 291.519,262.349 291.069 C 266.187 286.961,269.838 285.001,275.333 284.097 C 276.886 283.842,289.415 283.738,294.114 283.942 M350.848 284.238 C 353.319 284.612,353.881 284.768,356.333 285.758 C 359.631 287.088,364.046 290.972,368.333 296.313 C 368.654 296.712,368.993 297.124,369.086 297.228 C 369.179 297.332,369.510 297.754,369.823 298.167 C 370.135 298.579,370.472 298.992,370.571 299.083 C 370.669 299.175,371.082 299.700,371.489 300.250 C 371.895 300.800,372.271 301.287,372.325 301.333 C 372.378 301.379,373.281 302.467,374.332 303.750 C 375.382 305.033,376.318 306.169,376.412 306.273 C 376.506 306.377,376.921 306.861,377.333 307.348 C 377.746 307.836,378.215 308.369,378.375 308.534 C 378.535 308.699,378.667 308.902,378.667 308.986 C 378.667 309.070,378.723 309.164,378.792 309.194 C 378.907 309.246,379.607 310.029,380.417 311.012 C 380.600 311.234,381.163 311.908,381.667 312.509 C 382.171 313.110,382.846 313.930,383.167 314.330 C 383.488 314.730,383.867 315.176,384.009 315.321 C 384.929 316.254,386.241 318.425,386.644 319.683 C 386.956 320.654,386.910 355.326,386.595 356.358 C 385.542 359.817,382.656 361.167,376.316 361.167 L 373.333 361.167 373.333 360.157 C 373.333 357.269,370.338 350.271,368.344 348.500 C 368.292 348.454,367.877 347.967,367.420 347.417 C 365.328 344.896,360.349 340.627,358.500 339.770 C 358.143 339.604,357.573 339.266,357.309 339.063 C 357.185 338.967,356.821 338.789,356.500 338.667 C 356.179 338.545,355.804 338.356,355.667 338.248 C 355.345 337.994,352.521 336.809,352.083 336.745 C 351.900 336.718,351.469 336.576,351.125 336.429 C 350.781 336.282,350.500 336.199,350.500 336.244 C 350.500 336.288,350.300 336.249,350.055 336.156 C 347.158 335.054,337.847 334.986,334.083 336.038 C 333.717 336.141,333.327 336.242,333.218 336.263 C 332.858 336.332,331.761 336.684,331.083 336.947 C 330.717 337.090,330.267 337.264,330.083 337.335 C 328.511 337.941,323.824 340.525,323.694 340.858 C 323.664 340.936,323.565 341.000,323.474 341.000 C 323.384 341.000,323.211 341.094,323.090 341.208 C 322.602 341.671,322.155 342.000,322.012 342.000 C 321.929 342.000,321.836 342.056,321.806 342.125 C 321.775 342.194,321.375 342.549,320.917 342.914 C 319.671 343.906,316.846 346.759,315.798 348.083 C 313.698 350.738,311.765 354.247,311.162 356.500 C 311.051 356.912,310.857 357.582,310.730 357.988 C 310.604 358.394,310.499 358.994,310.498 359.321 C 310.497 359.649,310.450 360.198,310.393 360.542 L 310.290 361.167 296.750 361.167 L 283.210 361.167 283.107 360.542 C 283.050 360.198,283.003 359.661,283.002 359.348 C 283.000 358.812,282.811 358.021,282.219 356.083 C 280.987 352.046,276.669 346.142,272.583 342.909 C 272.125 342.547,271.725 342.194,271.694 342.125 C 271.664 342.056,271.575 342.000,271.496 342.000 C 271.418 342.000,271.108 341.775,270.806 341.500 C 270.505 341.225,270.170 341.000,270.060 341.000 C 269.951 341.000,269.836 340.941,269.806 340.870 C 269.775 340.798,269.260 340.442,268.661 340.078 C 268.062 339.714,267.424 339.326,267.244 339.215 C 266.856 338.977,263.896 337.524,263.417 337.337 C 263.233 337.265,262.783 337.088,262.417 336.943 C 257.949 335.176,246.027 334.625,243.679 336.076 C 243.614 336.116,243.360 336.186,243.115 336.230 C 242.548 336.333,241.560 336.642,240.917 336.919 C 240.642 337.037,240.096 337.254,239.705 337.400 C 238.863 337.715,236.462 338.894,235.750 339.342 C 235.475 339.515,235.046 339.772,234.796 339.913 C 232.200 341.384,228.349 344.701,226.083 347.417 C 225.625 347.967,225.194 348.442,225.125 348.472 C 225.056 348.503,225.000 348.628,225.000 348.750 C 225.000 348.872,224.939 348.997,224.865 349.028 C 223.387 349.633,220.167 357.337,220.167 360.264 L 220.167 361.179 210.125 361.123 C 192.418 361.025,193.082 362.115,193.653 334.083 L 193.779 327.917 194.223 327.000 C 195.963 323.416,200.246 322.118,209.417 322.396 C 221.648 322.767,278.721 323.106,286.690 322.854 C 294.936 322.594,296.774 322.241,299.961 320.302 C 300.536 319.953,301.080 319.667,301.170 319.667 C 301.260 319.667,301.333 319.604,301.333 319.527 C 301.333 319.450,301.502 319.306,301.708 319.208 C 302.854 318.662,307.000 314.371,307.000 313.733 C 307.000 313.665,307.102 313.491,307.226 313.346 C 307.455 313.079,308.148 311.758,308.456 311.000 C 308.549 310.771,308.717 310.358,308.830 310.083 C 309.655 308.068,309.659 308.005,309.663 295.625 L 309.667 284.000 329.473 284.000 C 345.778 284.000,349.556 284.042,350.848 284.238 M180.500 341.833 L 180.500 348.167 103.250 348.167 L 26.000 348.167 26.000 341.833 L 26.000 335.500 103.250 335.500 L 180.500 335.500 180.500 341.833 M254.167 348.731 C 258.709 349.547,263.774 352.666,266.500 356.327 C 266.729 356.634,267.010 356.981,267.125 357.098 C 267.240 357.214,267.333 357.384,267.333 357.474 C 267.333 357.565,267.397 357.664,267.475 357.694 C 267.803 357.823,269.314 360.804,269.834 362.347 C 272.325 369.739,269.625 378.037,263.208 382.708 C 262.819 382.991,262.500 383.285,262.500 383.362 C 262.500 383.438,262.413 383.500,262.307 383.500 C 262.201 383.500,261.883 383.672,261.599 383.883 C 260.978 384.345,258.479 385.571,257.667 385.813 C 257.346 385.909,256.821 386.070,256.500 386.171 C 252.870 387.312,247.894 386.818,243.948 384.925 C 242.485 384.223,241.178 383.516,241.000 383.329 C 240.954 383.282,240.695 383.101,240.423 382.928 C 239.670 382.447,237.094 379.905,236.295 378.853 C 235.904 378.338,235.546 377.879,235.500 377.833 C 235.454 377.787,235.335 377.600,235.235 377.417 C 235.135 377.233,234.858 376.732,234.619 376.302 C 234.053 375.284,233.250 373.281,233.027 372.333 C 232.930 371.921,232.754 371.171,232.635 370.667 C 231.807 367.136,233.047 361.876,235.739 357.500 C 236.106 356.904,236.464 356.392,236.536 356.361 C 236.608 356.331,236.667 356.237,236.667 356.154 C 236.667 355.945,237.247 355.253,238.333 354.166 C 242.780 349.718,248.578 347.727,254.167 348.731 M346.583 349.148 C 347.773 349.479,349.383 350.074,349.833 350.349 C 349.971 350.433,350.196 350.552,350.333 350.614 C 352.472 351.569,355.626 354.281,357.376 356.669 C 357.811 357.263,358.243 357.841,358.334 357.951 C 358.425 358.062,358.500 358.195,358.500 358.246 C 358.500 358.298,358.673 358.620,358.884 358.962 C 359.095 359.304,359.500 360.146,359.785 360.833 C 361.799 365.692,361.565 370.502,359.070 375.550 C 358.745 376.208,358.296 376.986,358.073 377.279 C 357.849 377.572,357.667 377.891,357.667 377.989 C 357.667 378.087,357.604 378.167,357.528 378.167 C 357.452 378.167,357.283 378.373,357.153 378.624 C 356.654 379.590,353.155 382.889,351.684 383.781 C 344.882 387.903,338.221 387.951,331.833 383.923 C 331.421 383.663,331.046 383.405,331.000 383.350 C 330.954 383.295,330.467 382.875,329.918 382.417 C 328.549 381.275,327.753 380.429,326.940 379.251 C 326.328 378.365,324.833 375.877,324.833 375.745 C 324.833 375.717,324.671 375.332,324.472 374.889 C 323.700 373.170,323.586 372.833,323.012 370.531 C 322.382 368.005,322.721 364.066,323.790 361.500 C 326.394 355.244,331.160 351.009,337.607 349.220 C 339.914 348.580,344.412 348.544,346.583 349.148 " stroke="none" fill="#3c545c" fill-rule="evenodd"></path><path id="path1" d="M258.000 32.333 L 258.000 38.833 296.750 38.833 L 335.500 38.833 335.500 32.333 L 335.500 25.833 296.750 25.833 L 258.000 25.833 258.000 32.333 M296.667 71.083 L 296.667 77.667 335.417 77.667 L 374.167 77.667 374.167 71.083 L 374.167 64.500 335.417 64.500 L 296.667 64.500 296.667 71.083 M322.373 96.875 L 322.417 103.417 348.292 103.459 L 374.167 103.501 374.167 96.917 L 374.167 90.333 348.248 90.333 L 322.329 90.333 322.373 96.875 M161.167 99.917 L 161.167 103.167 160.375 103.172 C 159.336 103.179,156.636 103.588,155.583 103.897 C 155.125 104.032,154.472 104.225,154.133 104.327 C 153.517 104.511,151.453 105.535,150.315 106.221 C 148.717 107.184,146.673 109.136,145.716 110.613 C 144.891 111.886,144.712 112.183,144.525 112.589 C 143.825 114.110,143.639 114.568,143.276 115.667 C 141.316 121.598,140.997 128.343,142.429 133.583 C 142.580 134.133,142.761 134.808,142.832 135.083 C 143.146 136.297,143.947 138.092,144.838 139.583 C 145.112 140.042,145.382 140.548,145.438 140.708 C 145.493 140.869,145.605 141.000,145.686 141.000 C 145.767 141.000,145.833 141.074,145.833 141.165 C 145.833 141.792,149.252 144.978,151.005 145.987 C 153.556 147.454,157.329 148.504,160.042 148.501 L 161.167 148.500 161.167 158.067 L 161.167 167.634 160.432 167.413 C 156.204 166.141,155.000 164.062,155.000 158.040 L 155.000 154.663 148.458 154.706 L 141.917 154.750 141.940 159.083 C 141.986 167.363,143.145 171.053,146.917 174.929 C 147.889 175.928,149.991 177.667,150.228 177.667 C 150.317 177.667,150.509 177.771,150.654 177.899 C 152.075 179.156,157.673 180.831,160.458 180.833 L 161.167 180.833 161.167 184.083 L 161.167 187.333 167.750 187.333 L 174.333 187.333 174.333 184.083 L 174.333 180.833 175.051 180.833 C 175.813 180.833,179.132 180.269,179.833 180.020 C 180.063 179.939,180.588 179.773,181.000 179.652 C 182.144 179.317,184.828 177.927,186.046 177.039 C 187.148 176.236,189.000 174.590,189.000 174.413 C 189.000 174.361,189.169 174.152,189.375 173.950 C 191.344 172.024,193.088 168.241,193.504 165.000 C 193.692 163.531,193.742 155.642,193.579 153.246 C 193.165 147.202,190.827 142.692,186.333 139.271 C 185.399 138.560,183.741 137.500,183.563 137.500 C 183.509 137.500,183.117 137.326,182.691 137.114 C 181.044 136.292,176.867 135.333,174.936 135.333 L 174.333 135.333 174.333 125.833 C 174.333 120.608,174.358 116.333,174.388 116.333 C 174.583 116.333,176.701 117.161,177.250 117.451 C 179.824 118.813,180.839 121.796,180.556 127.168 L 180.450 129.167 187.082 129.167 L 193.713 129.167 193.622 124.375 C 193.495 117.735,192.396 113.150,190.496 111.333 C 190.448 111.287,190.290 111.063,190.144 110.833 C 188.464 108.192,182.399 104.000,180.258 104.000 C 180.104 104.000,179.844 103.928,179.680 103.841 C 179.288 103.631,176.160 103.167,175.137 103.167 L 174.333 103.167 174.333 99.917 L 174.333 96.667 167.750 96.667 L 161.167 96.667 161.167 99.917 M161.167 125.833 C 161.167 132.522,161.113 135.333,160.987 135.333 C 159.543 135.333,156.455 133.089,155.712 131.500 C 154.786 129.521,154.631 122.957,155.458 120.797 C 156.240 118.756,159.026 116.534,161.042 116.345 C 161.110 116.339,161.167 120.608,161.167 125.833 M176.250 149.271 C 178.122 150.146,179.060 151.000,179.892 152.583 L 180.417 153.583 180.417 158.083 L 180.417 162.583 179.965 163.500 C 179.090 165.274,177.227 166.763,175.068 167.413 L 174.333 167.634 174.333 158.081 L 174.333 148.529 174.875 148.705 C 175.173 148.802,175.792 149.057,176.250 149.271 M309.667 187.083 L 309.667 193.667 341.917 193.667 L 374.167 193.667 374.167 187.083 L 374.167 180.500 341.917 180.500 L 309.667 180.500 309.667 187.083 M309.667 212.917 L 309.667 219.500 341.917 219.500 L 374.167 219.500 374.167 212.917 L 374.167 206.333 341.917 206.333 L 309.667 206.333 309.667 212.917 " stroke="none" fill="#048ccc" fill-rule="evenodd"></path><path id="path2" d="" stroke="none" fill="#44545c" fill-rule="evenodd"></path><path id="path3" d="" stroke="none" fill="#407078" fill-rule="evenodd"></path><path id="path4" d="" stroke="none" fill="#407078" fill-rule="evenodd"></path></g></svg>