<svg id="Layer_1" data-name="Layer 1" xmlns="http://www.w3.org/2000/svg" viewBox="0 0 132.85 129.94"><defs><style>.cls-1{fill:none;stroke:#091f2c;stroke-linecap:round;stroke-linejoin:round;stroke-width:3px;}.cls-2{fill:#5eabdb;}</style></defs><title>easy_4fa742d1-5e2c-4709-8e6d-0e008d954b77</title><polyline class="cls-1" points="86.41 1.5 86.41 24.17 92.04 19.73 97.51 24.17 97.51 1.5"/><path class="cls-1" d="M78.11,1.5A5.15,5.15,0,0,0,73,6.64V79.55a5.15,5.15,0,0,1,5.15-5.14h53.24V1.5Z"/><path class="cls-1" d="M73,79.55h0a4.78,4.78,0,0,0,4.77,4.77h49.42V74.41"/><path class="cls-1" d="M17.79,90.37V92a10.14,10.14,0,0,0,10.15,10.15h4.34A10.14,10.14,0,0,0,42.43,92V90.37l-.14-5.59V84.7a13.07,13.07,0,0,1,3.82-9.29,22.73,22.73,0,1,0-32.19-.2,13.57,13.57,0,0,1,4,9.49v.08H30.11"/><path class="cls-1" d="M24.13,102.37v2.11a6,6,0,0,0,6,6h0a6,6,0,0,0,6-6v-2.12"/><line class="cls-1" x1="30.11" y1="31.23" x2="30.11" y2="26.02"/><line class="cls-1" x1="20.51" y1="33.13" x2="18.73" y2="28.23"/><line class="cls-1" x1="12.15" y1="38.2" x2="8.79" y2="34.21"/><line class="cls-1" x1="6.02" y1="45.82" x2="1.5" y2="43.22"/><line class="cls-1" x1="39.71" y1="33.13" x2="41.49" y2="28.23"/><line class="cls-1" x1="48.08" y1="38.2" x2="51.43" y2="34.21"/><line class="cls-1" x1="54.21" y1="45.82" x2="58.72" y2="43.22"/><path class="cls-1" d="M77.64,114.8c-4.1,6.42-10.61,11-19.73,13.08a23.82,23.82,0,0,1-26.64-13,10.62,10.62,0,0,1-1.16-4.4h0"/><path class="cls-1" d="M102.16,84.32V91a23.75,23.75,0,0,1-15.32,22.43,22.58,22.58,0,0,1-3.21.92,18.41,18.41,0,0,1-10.84-.85,13.15,13.15,0,0,1-7.42-7.73c-1.7-5.21.83-11.88,7.37-12.7a7.18,7.18,0,0,1,2.77.16c4.77,1.24,6.57,6.19,6.49,10.66a15.54,15.54,0,0,1-1.47,6"/><path class="cls-2" d="M26.61,52c6.93-.87,14,2.3,18.69,7.53.5.56,1,1.16,1.4,1.76a16.35,16.35,0,0,0,.13-2A16.71,16.71,0,0,0,30.12,42.56c-.4,0-.8,0-1.21,0A16.77,16.77,0,0,0,13.45,57.85c0,.42,0,.84,0,1.27A22.13,22.13,0,0,1,26.61,52Z"/></svg>