<svg id="Layer_1" data-name="Layer 1" xmlns="http://www.w3.org/2000/svg" viewBox="0 0 88.34 132.68"><defs><style>.cls-1{fill:none;stroke:#091f2c;stroke-linecap:round;stroke-linejoin:round;stroke-width:3px;}.cls-2{fill:#2e95d3;}</style></defs><title>employees_02dc4c59-9771-4bd4-a9e1-bafa350eba11</title><path class="cls-1" d="M51.06,8.81V8.39A6.89,6.89,0,0,0,44.17,1.5h0a6.9,6.9,0,0,0-6.89,6.89v.42" transform="translate(0 0)"/><path class="cls-1" d="M29.56,10.73V25.25a2.48,2.48,0,0,0,2.49,2.48h1a2.48,2.48,0,0,0,2.47-2.16l0-.31a8.69,8.69,0,0,1,8.62-7.57h0a8.71,8.71,0,0,1,8.63,7.57l0,.31a2.47,2.47,0,0,0,2.46,2.16h0a2.48,2.48,0,0,0,2.49-2.48V10.73a1.92,1.92,0,0,0-1.92-1.92H31.48A1.92,1.92,0,0,0,29.56,10.73Z" transform="translate(0 0)"/><path class="cls-1" d="M24.28,14.62H3.79A2.28,2.28,0,0,0,1.5,16.91v112a2.29,2.29,0,0,0,2.29,2.29H84.56a2.29,2.29,0,0,0,2.28-2.29v-112a2.28,2.28,0,0,0-2.28-2.29H63.07" transform="translate(0 0)"/><rect class="cls-1" x="24.24" y="36.9" width="39.86" height="39.86"/><line class="cls-1" x1="13.32" y1="89.2" x2="75.03" y2="89.2"/><line class="cls-1" x1="13.32" y1="101.69" x2="75.03" y2="101.69"/><line class="cls-1" x1="13.32" y1="114.17" x2="75.03" y2="114.17"/><path class="cls-1" d="M49.23,48.44a5.56,5.56,0,1,1-5.56-5.55A5.55,5.55,0,0,1,49.23,48.44Z" transform="translate(0 0)"/><path class="cls-1" d="M33.11,76.61v-14A3.6,3.6,0,0,1,36.72,59H50.63a3.6,3.6,0,0,1,3.61,3.61v14" transform="translate(0 0)"/><path class="cls-2" d="M39.11,65v6.68h0a15.11,15.11,0,0,1,9.1-.13h0V65Z" transform="translate(0 0)"/></svg>