<?xml version="1.0" encoding="UTF-8"?>
<svg id="Layer_1" data-name="Layer 1" xmlns="http://www.w3.org/2000/svg" xmlns:xlink="http://www.w3.org/1999/xlink" viewBox="0 0 672.8 328.49">
  <defs>
    <style>
      .cls-1 {
        fill: url(#linear-gradient-2);
      }

      .cls-2 {
        fill: #fff;
      }

      .cls-3 {
        fill: #040241;
      }

      .cls-4 {
        fill: url(#linear-gradient-3);
      }

      .cls-5 {
        fill: url(#linear-gradient);
      }
    </style>
    <linearGradient id="linear-gradient" x1="188.97" y1="302.06" x2="188.97" y2="68.24" gradientUnits="userSpaceOnUse">
      <stop offset="0" stop-color="#0fdf95"/>
      <stop offset=".06" stop-color="#10d997"/>
      <stop offset=".13" stop-color="#14c89e"/>
      <stop offset=".22" stop-color="#1baea9"/>
      <stop offset=".31" stop-color="#1ea1ae"/>
      <stop offset=".48" stop-color="#2681bb"/>
      <stop offset=".56" stop-color="#2b71c3"/>
      <stop offset=".74" stop-color="#3253ce"/>
      <stop offset=".85" stop-color="#383ed8"/>
    </linearGradient>
    <linearGradient id="linear-gradient-2" x1="128.98" y1="243.99" x2="128.98" y2="109.1" xlink:href="#linear-gradient"/>
    <linearGradient id="linear-gradient-3" x1="68.99" y1="189.56" x2="68.99" y2="122.75" xlink:href="#linear-gradient"/>
  </defs>
  <rect class="cls-3" width="672.8" height="328.49"/>
  <g>
    <g>
      <g>
        <path class="cls-2" d="M296.06,220.44c3.57,0,6.47,2.9,6.47,6.47v34.69c0,.91,.27,1.6,.8,2.06,.46,.53,1.07,.8,1.83,.8h3.2v11.66h-7.2c-2.25,0-4.36-.58-6.33-1.74-2-1.18-4.5-1.31-6.51-.14-3.44,2.02-7.17,3.02-11.17,3.02-6.02,0-11.2-1.9-15.55-5.72-5.79-5.41-8.69-12.65-8.69-21.72,0-8.3,2.67-15.2,8-20.69,4.88-4.95,10.86-7.43,17.95-7.43,3.96,0,7.93,.84,11.89,2.52l4.6-3.53c.2-.15,.45-.24,.7-.24h0Zm-7.48,14.75c-2.67-.99-5.22-1.49-7.66-1.49-4.12,0-7.51,1.51-10.17,4.52-2.67,3.01-4,6.91-4,11.72s1.2,8.65,3.6,11.55c2.4,2.9,5.62,4.34,9.66,4.34,2.74,0,5.6-.61,8.57-1.83v-28.81Zm-10.86-36.81c2.25,0,4.14,.87,5.66,2.6,1.01,1.14,1.62,2.61,1.74,4.13,.22,2.67-.8,4.89-3.05,6.65-.85,.66-1.87,1.11-2.94,1.26-2.68,.39-4.9-.3-6.67-2.07-1.61-1.61-2.33-3.55-2.14-5.82,.12-1.57,.78-3.08,1.83-4.25,1.5-1.67,3.36-2.5,5.57-2.5Zm17.38,0c2.25,0,4.13,.87,5.66,2.6,1,1.14,1.61,2.59,1.74,4.09,.23,2.68-.78,4.9-3.02,6.66-.79,.62-1.73,1.06-2.72,1.24-2.7,.49-4.96-.18-6.8-2.02-1.45-1.45-2.17-3.16-2.17-5.14,0-2.06,.89-4.07,2.4-5.48,1.4-1.3,3.04-1.95,4.92-1.95Z"/>
        <path class="cls-2" d="M335.5,223.53c3.57,0,6.47,2.9,6.47,6.47v34.46h5.83v11.66h-4l-4.23-4.69h-.23c-2.59,3.13-5.83,4.69-9.72,4.69h-22.06v-11.66h17.26c1.07,0,1.83-.3,2.29-.91,.69-.61,1.03-1.37,1.03-2.29v-31.26c0-3.57,2.9-6.47,6.47-6.47h.9Zm-1.53,60.95c2.27-.18,4.21,.53,5.82,2.14s2.31,3.56,2.15,5.89c-.11,1.58-.75,3.1-1.81,4.27-1.52,1.68-3.34,2.53-5.48,2.53-2.26,0-4.15-.87-5.68-2.62-1.05-1.2-1.66-2.76-1.74-4.35-.12-2.35,.67-4.33,2.36-5.91,1.19-1.12,2.75-1.82,4.38-1.95Z"/>
        <path class="cls-2" d="M461.3,223.53c3.85,0,6.97,3.12,6.97,6.97v33.04c0,3.43-1.2,6.38-3.6,8.86-2.4,2.48-5.32,3.71-8.74,3.71h-23.78c-.14,0-.28-.06-.38-.17l-4.08-4.52h-.34c-2.52,3.13-5.72,4.69-9.6,4.69h-23.78c-.14,0-.28-.06-.37-.16l-4.19-4.52h-.34c-2.52,3.13-5.72,4.69-9.6,4.69h-31.96c-.28,0-.51-.23-.51-.51v-10.65c0-.28,.23-.51,.51-.51h26.99c1.86,0,3.36-1.51,3.36-3.36v-17.95c0-3.57,2.9-6.47,6.47-6.47h1.01c3.57,0,6.47,2.9,6.47,6.47v16.4c0,1.88-.03,3.34-.08,4.39-.01,.29,.22,.53,.51,.53h20.56c1.86,0,3.36-1.51,3.36-3.36v-24.58c0-3.57,2.9-6.47,6.47-6.47h1.01c3.57,0,6.47,2.9,6.47,6.47v24.05c0,.45-.04,1.13-.11,2.04,0,.01,0,.03,0,.04v1.3c0,.28,.23,.51,.51,.51h20.48c1.86,0,3.36-1.51,3.36-3.36v-30.59c0-3.85,3.12-6.97,6.97-6.97h0Z"/>
        <path class="cls-2" d="M491.53,194.26c3.57,0,6.47,2.9,6.47,6.47v60.86c0,.76,.23,1.37,.69,1.83,.46,.69,1.18,1.03,2.17,1.03h2.97v11.66h-7.43c-3.13,0-5.87-1.1-8.23-3.31-2.74-2.52-4.12-5.6-4.12-9.26v-62.8c0-3.57,2.9-6.47,6.47-6.47h1.01Z"/>
        <path class="cls-2" d="M518.12,230.4c0-2.99,2.06-5.59,4.96-6.3,5.32-1.3,10.26-1.95,14.81-1.95,9.22,0,16.65,2.9,22.29,8.69,5.1,5.18,7.66,11.74,7.66,19.66v13.95h3.77v11.66h-2.4l-3.77-4.69h-.23c-2.59,3.13-5.83,4.69-9.72,4.69h-52.58v-11.66h48.13c1.58,0,2.86-1.28,2.86-2.86v-10.29c0-5.18-1.73-9.35-5.2-12.52-3.47-3.16-8.02-4.74-13.66-4.74-2.68,0-6.34,.43-10.97,1.29-3.09,.57-5.95-1.8-5.95-4.94h0Z"/>
        <path class="cls-2" d="M591.27,243.3c0-7.24,2.52-12.73,7.55-16.46,3.96-3.05,9.37-4.57,16.23-4.57s12.38,1.98,17.03,5.94c5.87,5.03,8.8,12.16,8.8,21.38,0,8.69-2.33,15.89-6.97,21.6-4.5,5.56-10.33,8.34-17.49,8.34-4.59,0-8.48-1.24-11.66-3.73-1.95-1.52-4.56-1.93-6.79-.87-1.64,.78-3.46,1.17-5.44,1.17h-21.77s-.07-.03-.07-.07v-11.52s.03-.07,.07-.07h17.54c.92,0,1.7-.36,2.35-1.1,.43-.49,.63-1.14,.63-1.78v-18.27Zm13.83,19.86s0,.04,.02,.05c2.81,3.04,6.05,4.55,9.7,4.55s6.52-1.58,8.8-4.74c2.29-3.16,3.43-7.26,3.43-12.29,0-5.49-1.26-9.79-3.77-12.92-2.29-2.67-5.26-4-8.92-4-2.74,0-4.92,.88-6.52,2.63-1.83,1.68-2.74,3.96-2.74,6.86v19.86Z"/>
      </g>
      <rect class="cls-2" x="517.31" y="264.45" width="70.99" height="11.66"/>
      <rect class="cls-2" x="302.53" y="264.45" width="140.53" height="11.66"/>
    </g>
    <g>
      <path class="cls-2" d="M325.21,94.93v72.2c0,2.7-2.19,4.88-4.88,4.88h-2.67c-2.7,0-4.88-2.19-4.88-4.88v-44.24c0-1.74-2.36-2.27-3.1-.7l-15.11,31.96c-.79,1.67-2.45,2.75-4.3,2.8l-2.27,.05c-1.91,.05-3.68-1.03-4.51-2.75l-15.05-31.02c-.75-1.55-3.09-1.02-3.09,.71v43.18c0,2.7-2.19,4.88-4.88,4.88h-2.66c-2.7,0-4.88-2.19-4.88-4.88V94.93c0-2.7,2.19-4.88,4.88-4.88h4.45c1.89,0,3.62,1.09,4.42,2.81l21.14,45.02c.59,1.25,2.37,1.25,2.95-.01l20.71-44.98c.8-1.73,2.53-2.84,4.44-2.84h4.42c2.7,0,4.88,2.19,4.88,4.88Z"/>
      <path class="cls-2" d="M366.77,112.95c7.21,0,13.05,2.3,17.5,6.91,2.61,2.69,4.41,5.85,5.41,9.5,1,3.65,1.5,8.12,1.5,13.41s-.5,9.86-1.5,13.47c-1,3.61-2.8,6.79-5.41,9.56-4.45,4.6-10.29,6.91-17.5,6.91s-12.93-2.3-17.38-6.91c-2.61-2.76-4.42-5.95-5.41-9.56-1-3.61-1.5-8.1-1.5-13.47s.5-9.77,1.5-13.41c1-3.64,2.8-6.81,5.41-9.5,4.45-4.6,10.25-6.91,17.38-6.91Zm0,10.48c-3.45,0-6.29,1.11-8.52,3.34-2.69,2.69-4.03,8.02-4.03,16s1.34,13.32,4.03,16c2.3,2.3,5.14,3.45,8.52,3.45s6.33-1.15,8.63-3.45c2.69-2.69,4.03-8.02,4.03-16s-1.34-13.32-4.03-16c-2.23-2.23-5.11-3.34-8.63-3.34Z"/>
      <path class="cls-2" d="M418.81,94.93v20.83c0,1.38,1.58,2.1,2.67,1.25,3.48-2.71,7.69-4.06,12.65-4.06,5.91,0,10.71,1.77,14.39,5.29,3.91,3.84,5.87,9.33,5.87,16.46v32.42c0,2.7-2.19,4.88-4.88,4.88h-1.97c-2.7,0-4.88-2.19-4.88-4.88v-30.69c0-4.37-1.08-7.64-3.22-9.79-2.15-2.15-4.99-3.22-8.52-3.22s-6.43,1.09-8.69,3.28c-2.26,2.19-3.4,5.43-3.4,9.73v30.69c0,2.7-2.19,4.88-4.88,4.88h-1.97c-2.7,0-4.88-2.19-4.88-4.88V94.93c0-2.7,2.19-4.88,4.88-4.88h1.97c2.7,0,4.88,2.19,4.88,4.88Z"/>
      <path class="cls-2" d="M491.68,112.95c6.31,0,11.62,.98,15.94,2.93,3.12,1.41,3.9,5.47,1.51,7.9l-.37,.37c-1.47,1.49-3.75,1.95-5.6,.98-3.07-1.6-6.93-2.4-11.59-2.4-3.45,0-6.08,.67-7.89,2-1.8,1.33-2.71,3.14-2.71,5.43,0,2.06,.63,3.61,1.9,4.63,1.27,1.03,3.32,1.7,6.16,2l8.26,.71c12.23,1.06,18.34,6.61,18.33,16.65,0,5.91-2.24,10.48-6.73,13.7-4.49,3.22-10.34,4.84-17.56,4.84-8.02,0-14.62-1.58-19.82-4.75-2.66-1.62-3-5.36-.8-7.56l.7-.7c1.62-1.62,4.17-1.93,6.07-.66,3.65,2.43,8.27,3.65,13.85,3.65,3.84,0,6.93-.67,9.27-2.01,2.34-1.34,3.51-3.36,3.51-6.05,0-4.07-2.61-6.37-7.83-6.91l-9.4-.85c-11.46-1.07-17.19-6.42-17.19-16.07,0-5.6,2.07-9.98,6.22-13.12,4.14-3.15,9.4-4.72,15.77-4.72Z"/>
      <path class="cls-2" d="M541.65,94.93v20.74c0,1.34,1.55,2.14,2.6,1.3,3.37-2.68,7.6-4.02,12.71-4.02,5.99,0,10.71,1.73,14.16,5.18,4.37,4.45,6.56,12.66,6.56,24.64s-2.19,20.3-6.56,24.75c-3.45,3.45-8.21,5.18-14.28,5.18s-10.83-1.98-14.56-5.93c-.31-.33-.86-.09-.86,.36h0c0,2.7-2.19,4.88-4.88,4.88h-1.74c-2.7,0-4.88-2.19-4.88-4.88V94.93c0-2.7,2.19-4.88,4.88-4.88h1.97c2.7,0,4.88,2.19,4.88,4.88Zm12.2,28.5c-2.61,0-4.76,.5-6.45,1.5-1.69,1-2.94,2.46-3.74,4.37-.81,1.92-1.34,3.91-1.61,5.99-.27,2.07-.4,4.57-.4,7.48s.13,5.41,.4,7.48c.27,2.07,.81,4.09,1.61,6.04,.81,1.96,2.07,3.44,3.8,4.43,1.73,1,3.86,1.5,6.39,1.5s4.64-.5,6.33-1.5c1.69-1,2.94-2.48,3.74-4.43,.81-1.96,1.34-3.97,1.61-6.04,.27-2.07,.4-4.57,.4-7.48s-.13-5.41-.4-7.48c-.27-2.07-.81-4.07-1.61-5.99s-2.05-3.38-3.74-4.37c-1.69-1-3.8-1.5-6.33-1.5Z"/>
      <path class="cls-2" d="M605.31,94.93v20.83c0,1.38,1.58,2.1,2.67,1.25,3.48-2.71,7.69-4.06,12.64-4.06,5.91,0,10.71,1.77,14.39,5.29,3.92,3.84,5.87,9.33,5.87,16.46v32.42c0,2.7-2.19,4.88-4.88,4.88h-1.97c-2.7,0-4.88-2.19-4.88-4.88v-30.69c0-4.37-1.08-7.64-3.22-9.79-2.15-2.15-4.99-3.22-8.52-3.22s-6.43,1.09-8.69,3.28c-2.26,2.19-3.4,5.43-3.4,9.73v30.69c0,2.7-2.19,4.88-4.88,4.88h-1.97c-2.7,0-4.88-2.19-4.88-4.88V94.93c0-2.7,2.19-4.88,4.88-4.88h1.97c2.7,0,4.88,2.19,4.88,4.88Z"/>
    </g>
    <g>
      <path class="cls-5" d="M210.29,85.14v195.58c0,11.78-9.54,21.33-21.32,21.33s-21.33-9.55-21.33-21.33V99.95c1.54-.94,3.05-1.95,4.54-2.98,1.16-.79,3.14-2.29,4.29-3.13,1.32-1.05,3.46-2.67,4.71-3.79l2.29-2c.2-.16,.39-.33,.58-.52,.63-.58,1.62-1.51,2.26-2.09,.86-.8,1.82-1.81,2.67-2.64,.9-.86,2.29-2.42,3.11-3.28,.96-1.05,1.89-2.12,2.78-3.2,2.26-2.73,5.09-5.15,7.1-8.09,1.96,1.52,3.66,3.38,5,5.48,1.52,2.4,2.59,5.12,3.05,8.04,.17,1.1,.27,2.23,.27,3.38Z"/>
      <path class="cls-1" d="M150.31,109.1v113.56c0,11.78-9.55,21.33-21.33,21.33s-21.33-9.55-21.33-21.33V120.66c3.25-.49,6.5-1.04,9.66-1.63,1.76-.36,4.37-.91,6.1-1.26,1.6-.38,6.6-1.6,8.12-2.06,1.4-.41,3.9-1.15,5.31-1.56,.33-.11,1.65-.55,2.01-.66,3.88-1.29,7.7-2.75,11.45-4.4h.02Z"/>
      <path class="cls-4" d="M90.32,122.75v45.49c0,11.77-9.55,21.32-21.33,21.32s-21.33-9.55-21.33-21.32v-45.34c.68,.08,1.38,.14,2.06,.14,1.45,.08,2.87,.25,4.32,.33,3.06,.17,6.11,.28,9.17,.35,3.05,.05,6.11,.05,9.17-.02,3.06-.05,6.11-.17,9.17-.33,2.92-.17,5.83-.38,8.75-.63h.02Z"/>
      <path class="cls-2" d="M209.6,71.76l-7.45-3.77c-.06,.08-.11,.17-.17,.25-2.01,2.94-4.84,5.36-7.1,8.09-.9,1.08-1.82,2.15-2.78,3.2-.82,.86-2.22,2.42-3.11,3.28-.85,.83-1.81,1.84-2.67,2.64-.64,.58-1.63,1.51-2.26,2.09-.19,.19-.38,.36-.58,.52l-2.29,2c-1.26,1.12-3.39,2.73-4.71,3.79-1.15,.83-3.13,2.34-4.29,3.13-1.49,1.04-3,2.04-4.54,2.98,0,.02-.02,.02-.02,.02-5.53,3.47-11.33,6.52-17.31,9.13h-.02c-3.75,1.65-7.57,3.11-11.45,4.4-.36,.11-1.68,.55-2.01,.66-1.41,.41-3.91,1.15-5.31,1.56-1.52,.46-6.52,1.68-8.12,2.06-1.73,.35-4.34,.9-6.1,1.26-3.16,.6-6.41,1.15-9.66,1.63h-.02c-2.62,.41-5.25,.75-7.82,1.08-3.03,.38-6.06,.69-9.11,.97-.13,.02-.25,.02-.38,.03h-.02c-2.92,.25-5.83,.46-8.75,.63-3.06,.16-6.11,.28-9.17,.33-3.06,.06-6.13,.06-9.17,.02-3.06-.06-6.11-.17-9.17-.35-1.45-.08-2.87-.25-4.32-.33-.68,0-1.38-.06-2.06-.14h-.09c-.75-.08-1.52-.08-2.29-.11-3.05-.16-6.1-.31-9.14-.57-1.41-.11-2.81-.25-4.21-.38,.13,.05,.27,.13,.36,.16,.19,.06,.38,.13,.57,.19,.38,.14,.75,.27,1.13,.39,.72,.25,1.45,.5,2.17,.75,1.38,.49,2.84,.82,4.29,1.12,1.13,.25,2.28,.46,3.44,.66,.82,.14,1.63,.27,2.45,.41,.44,.08,.88,.14,1.32,.2h.02c1.04,.19,2.06,.35,3.09,.5,3.03,.47,6.06,.88,9.11,1.26,2.98,.38,5.97,.69,8.97,.97,7.12,.69,14.3,1.12,21.47,1.27h.02c5.78,.14,11.55,.09,17.31-.16h.02c.74-.03,1.48-.08,2.21-.11,3.17-.2,6.76-.42,9.91-.77,1.87-.24,4.52-.49,6.39-.75,2.09-.38,5.4-.85,7.48-1.26,2.18-.49,5.12-1.05,7.27-1.6,3.16-.77,6.28-1.65,9.38-2.64h.02c5.48-1.76,10.84-3.88,16.04-6.35,.41-.19,.83-.41,1.27-.61h.02c.96-.47,1.95-.97,2.84-1.41,1.87-1.04,3.94-2.12,5.78-3.22,.96-.58,3.33-2.03,4.23-2.59,.91-.63,3.17-2.12,4.13-2.78,.85-.61,3.19-2.34,4.01-2.94,.94-.71,2.91-2.34,3.88-3.11,.75-.6,1.73-1.49,2.48-2.12,1.49-1.26,3.46-3.13,4.89-4.48,.72-.69,1.59-1.63,2.32-2.36,1.63-1.65,3.22-3.35,4.76-5.09,1.05-1.19,2.07-2.39,3.06-3.63,1.87-2.29,3.66-4.67,5.37-7.08l-5.8-2.92Z"/>
      <path class="cls-2" d="M238.15,74.99c.28,5.11-5.07,8.61-9.65,6.3l-13.1-6.61-5.8-2.92-7.45-3.77-1.93-.97-.03-.02-3.11-1.57-6.36-3.22c-4.57-2.31-4.93-8.69-.64-11.5l1.1-.72,16.6-10.87,13.79-9.03c1.89-1.15,3.77-2.28,5.67-3.36t.03-.02c3.93-1.16,8.25,1.6,8.5,6.02l1.19,21.13,1.16,20.88,.02,.27Z"/>
    </g>
  </g>
</svg>