<svg id="Layer_1" data-name="Layer 1" xmlns="http://www.w3.org/2000/svg" viewBox="0 0 107.94 128.34"><defs><style>.cls-1{fill:none;stroke:#091f2c;stroke-linecap:round;stroke-linejoin:round;stroke-width:3px;}.cls-2{fill:#2e95d3;}</style></defs><title>manu_e6dedc71-00a9-42da-b43e-be50e83b5338</title><polyline class="cls-1" points="20.22 1.5 20.22 30.58 27.43 24.88 34.46 30.58 34.46 1.5"/><path class="cls-1" d="M83.55,75V1.5H8.73A7.23,7.23,0,0,0,1.5,8.73V111.19A7.23,7.23,0,0,1,8.73,104H54.67"/><path class="cls-1" d="M1.5,111.19h0a6.7,6.7,0,0,0,6.7,6.69H58.25"/><circle class="cls-1" cx="83.55" cy="103.96" r="22.88"/><line class="cls-1" x1="83.55" y1="91.27" x2="83.55" y2="116.65"/><line class="cls-1" x1="70.86" y1="103.96" x2="96.24" y2="103.96"/><path class="cls-2" d="M8.73,98H39A58.83,58.83,0,0,1,10.25,63.6L7.5,54.86V98C7.9,98,8.31,98,8.73,98Z"/></svg>