<svg id="Layer_1" data-name="Layer 1" xmlns="http://www.w3.org/2000/svg" viewBox="0 0 133 130.94"><defs><style>.cls-1{fill:none;stroke:#091f2c;stroke-linecap:round;stroke-linejoin:round;stroke-width:3px;}.cls-2{fill:#5eabdb;}</style></defs><title>production_1957fd45-91f9-44b7-8ba3-cee438fade41</title><polyline class="cls-1" points="66.5 129.44 29.3 116.37 29.3 90.56"/><line class="cls-1" x1="29.3" y1="68.54" x2="66.5" y2="81.6"/><polyline class="cls-1" points="66.5 91.57 66.5 129.44 103.7 116.37 103.7 90.56"/><line class="cls-1" x1="103.7" y1="68.54" x2="66.5" y2="81.6"/><polyline class="cls-1" points="77.88 61.93 103.7 68.54 115.62 80.46 79.2 94 66.5 81.6"/><polyline class="cls-1" points="66.5 81.6 53.8 94 17.37 80.46 29.3 68.54 55.12 61.93"/><path class="cls-1" d="M131.5,52.75H111.33V27.46a26,26,0,0,0-26-26H72V15.71A5.49,5.49,0,0,1,66.5,21.2h0A5.49,5.49,0,0,1,61,15.71V1.5H47.63a26,26,0,0,0-26,26V52.75H1.5"/><path class="cls-1" d="M59.57,23.2l-4.14,5.48a14.85,14.85,0,0,0-1.09,16.24L61,56.75"/><path class="cls-1" d="M73.43,23.2l4.13,5.48a14.81,14.81,0,0,1,1.09,16.24L72,56.75"/><line class="cls-1" x1="66.5" y1="63.38" x2="66.5" y2="73.62"/><line class="cls-1" x1="60.01" y1="65.94" x2="60.01" y2="71.06"/><line class="cls-1" x1="72.99" y1="65.94" x2="72.99" y2="71.06"/><path class="cls-2" d="M92.81,113.84l-10-1.74a15.82,15.82,0,0,1-10.33-6.6h0V121Z"/><path class="cls-2" d="M40.19,113.84l10-1.74a15.82,15.82,0,0,0,10.33-6.6h0V121Z"/></svg>