<svg id="Layer_1" data-name="Layer 1" xmlns="http://www.w3.org/2000/svg" viewBox="0 0 130.5 130.5"><defs><style>.cls-1{fill:none;stroke:#091f2c;stroke-linecap:round;stroke-linejoin:round;stroke-width:3px;}.cls-2{fill:#5eabdb;}</style></defs><title>tasks_a06ed3f5-80b5-4630-9916-3f57a7be86f8</title><polyline class="cls-1" points="129 54.45 129 119.91 99.94 119.91"/><polyline class="cls-1" points="109.17 19.27 129 19.27 129 23.93"/><polyline class="cls-1" points="69.9 119.91 28.36 119.91 28.36 105.92"/><rect class="cls-1" x="14.93" y="14.93" width="100.64" height="100.64" transform="translate(24.24 -17.41) rotate(18.61)"/><path class="cls-1" d="M66,12.41a10.65,10.65,0,0,1,9.89-6.7h0A10.65,10.65,0,0,1,86.55,16.36V40.81A10.65,10.65,0,0,1,75.9,51.46h0A10.65,10.65,0,0,1,65.25,40.81V28.59" transform="translate(0 0)"/><path class="cls-1" d="M73.25,28.59V40.81a2.65,2.65,0,0,0,2.65,2.65" transform="translate(0 0)"/><line class="cls-1" x1="44.46" y1="60.93" x2="82.78" y2="73.83"/><line class="cls-1" x1="38.79" y1="76.3" x2="77.12" y2="89.21"/><path class="cls-2" d="M23.47,50.46,9.1,93.11l41,13.81-7.38-6A52.16,52.16,0,0,1,23.36,59.82Z" transform="translate(0 0)"/></svg>