<svg xmlns="http://www.w3.org/2000/svg" width="65.403" height="66.746" viewBox="0 0 65.403 66.746">
  <g id="Group_7" data-name="Group 7" transform="translate(1 1)">
    <g id="Group_5" data-name="Group 5" transform="translate(6.174 4.874)">
      <rect id="Rectangle_4" data-name="Rectangle 4" width="3.254" height="12.269" transform="translate(0 5.381)" fill="#5eabdb"/>
      <rect id="Rectangle_5" data-name="Rectangle 5" width="3.254" height="5.475" transform="translate(8.849 12.175)" fill="#2e95d3"/>
      <path id="Path_8" data-name="Path 8" d="M2349.868,1889.348v-8.443h-3.254v5.179Z" transform="translate(-2328.915 -1875.524)" fill="#5eabdb"/>
      <path id="Path_9" data-name="Path 9" d="M2316.657,1870.875l8.849,6.794,8.85-6.794,8.849,5.652" transform="translate(-2315.03 -1870.875)" fill="none" stroke="#091f2c" stroke-linecap="round" stroke-linejoin="round" stroke-width="2"/>
    </g>
    <g id="Group_6" data-name="Group 6" transform="translate(21.799 1.403)">
      <line id="Line_8" data-name="Line 8" y2="33.065" transform="translate(22.51 25.996)" fill="none" stroke="#091f2c" stroke-linecap="round" stroke-linejoin="round" stroke-width="2"/>
      <line id="Line_9" data-name="Line 9" y1="21.743" transform="translate(29.35 37.318)" fill="none" stroke="#091f2c" stroke-linecap="round" stroke-linejoin="round" stroke-width="2"/>
      <line id="Line_10" data-name="Line 10" y2="21.743" transform="translate(36.19 37.318)" fill="none" stroke="#091f2c" stroke-linecap="round" stroke-linejoin="round" stroke-width="2"/>
      <line id="Line_11" data-name="Line 11" y2="11.322" transform="translate(36.19 25.996)" fill="none" stroke="#091f2c" stroke-linecap="round" stroke-linejoin="round" stroke-width="2"/>
      <circle id="Ellipse_3" data-name="Ellipse 3" cx="6.437" cy="6.437" r="6.437" transform="translate(22.912)" stroke-width="2" stroke="#091f2c" stroke-linecap="round" stroke-linejoin="round" fill="none"/>
      <path id="Path_10" data-name="Path 10" d="M2384.354,1914.064v-14.691a4.187,4.187,0,0,0-4.187-4.187h-16.134a4.187,4.187,0,0,0-4.187,4.187v12.146l-17.1-17.1" transform="translate(-2342.75 -1878.318)" fill="none" stroke="#091f2c" stroke-linecap="round" stroke-linejoin="round" stroke-width="2"/>
      <line id="Line_12" data-name="Line 12" x2="13.68" transform="translate(22.51 37.318)" fill="none" stroke="#091f2c" stroke-linecap="round" stroke-linejoin="round" stroke-width="2"/>
      <line id="Line_13" data-name="Line 13" y2="7.461" transform="translate(29.35 16.868)" fill="none" stroke="#091f2c" stroke-linecap="round" stroke-linejoin="round" stroke-width="2"/>
      <path id="Path_11" data-name="Path 11" d="M2389.285,1978.317h-9.459a3.917,3.917,0,0,1,3.917-3.917h5.542Z" transform="translate(-2359.935 -1915.388)" fill="none" stroke="#091f2c" stroke-linecap="round" stroke-linejoin="round" stroke-width="2"/>
      <path id="Path_12" data-name="Path 12" d="M2397.457,1978.317h9.459A3.918,3.918,0,0,0,2403,1974.4h-5.542Z" transform="translate(-2368.107 -1915.388)" fill="none" stroke="#091f2c" stroke-linecap="round" stroke-linejoin="round" stroke-width="2"/>
    </g>
    <path id="Path_13" data-name="Path 13" d="M2329.243,1889.188h-27.126v-27.4h38.9v16.353" transform="translate(-2302.116 -1861.789)" fill="none" stroke="#091f2c" stroke-linecap="round" stroke-linejoin="round" stroke-width="2"/>
    <path id="Path_14" data-name="Path 14" d="M2328.3,1912.859v25.267l-11.647,11.667" transform="translate(-2308.856 -1885.461)" fill="none" stroke="#091f2c" stroke-linecap="round" stroke-linejoin="round" stroke-width="2"/>
    <line id="Line_14" data-name="Line 14" x2="11.653" y2="11.667" transform="translate(19.448 52.665)" fill="none" stroke="#091f2c" stroke-linecap="round" stroke-linejoin="round" stroke-width="2"/>
  </g>
</svg>
