<svg id="Layer_1" data-name="Layer 1" xmlns="http://www.w3.org/2000/svg" viewBox="0 0 129.09 123.91"><defs><style>.cls-1{fill:none;stroke:#091f2c;stroke-linecap:round;stroke-linejoin:round;stroke-width:3px;}.cls-2{fill:#2e95d3;}</style></defs><title>expensis</title><path class="cls-1" d="M85.15,48.75,69.54,21.9H33.48L11.53,56.68a49.47,49.47,0,0,0-10,29.51c0,16.46,8.65,36.22,49.78,36.22,16.53,0,23.26-.33,23.26-.33" transform="translate(0)"/><path class="cls-1" d="M69.54,21.9,82.87,9,78.09,4.19a9.18,9.18,0,0,0-13,0L61.23,8.05l-1.7-1.69a11.32,11.32,0,0,0-16,0l-1.7,1.69L37.93,4.19a9.18,9.18,0,0,0-13,0L20.15,9,33.48,21.9" transform="translate(0)"/><rect class="cls-1" x="74.54" y="48.75" width="53.05" height="73.33"/><rect class="cls-2" x="81.99" y="56.2" width="38.16" height="8.4"/><path class="cls-1" d="M43.32,85.39a7.55,7.55,0,0,0,15.1,0c0-4.17-3.09-6.1-7.55-7.55-4-1.29-7.55-3.38-7.55-7.55a7.55,7.55,0,0,1,15.1,0" transform="translate(0)"/><line class="cls-1" x1="50.87" y1="58.53" x2="50.87" y2="62.79"/><line class="cls-1" x1="50.87" y1="92.94" x2="50.87" y2="97.2"/><line class="cls-1" x1="89.14" y1="87.96" x2="92.93" y2="87.96"/><line class="cls-1" x1="99.17" y1="87.96" x2="102.96" y2="87.96"/><line class="cls-1" x1="109.21" y1="87.96" x2="113" y2="87.96"/><line class="cls-1" x1="89.14" y1="96.84" x2="92.93" y2="96.84"/><line class="cls-1" x1="99.17" y1="96.84" x2="102.96" y2="96.84"/><line class="cls-1" x1="109.21" y1="96.84" x2="113" y2="96.84"/><line class="cls-1" x1="89.14" y1="105.72" x2="92.93" y2="105.72"/><line class="cls-1" x1="99.17" y1="105.72" x2="102.96" y2="105.72"/><line class="cls-1" x1="109.21" y1="105.72" x2="113" y2="105.72"/></svg>