<svg id="Layer_1" data-name="Layer 1" xmlns="http://www.w3.org/2000/svg" viewBox="0 0 118.91 120.74"><defs><style>.cls-1{fill:none;stroke:#091f2c;stroke-linecap:round;stroke-linejoin:round;stroke-width:3px;}.cls-2{fill:#2e95d3;}</style></defs><title>bills_e8a018c3-09ee-4516-9620-f2ad8b481a10</title><path class="cls-1" d="M44.84,105H31.74c0-.9-.11-3.56-.11-3.79s0-.46,0-.69h.5a3.9,3.9,0,0,0,0-7.8,79.11,79.11,0,0,1,2.28-11c.7-2.52,1.52-5,2.44-7.46.49-1.29,1-2.49,1.61-3.74a23.5,23.5,0,0,0,1.75-4.79,13.73,13.73,0,0,0-1.14-9.3,14.18,14.18,0,0,0-25.31,0,13.79,13.79,0,0,0-1.14,9.3,23.5,23.5,0,0,0,1.75,4.79C15,71.81,15.55,73,16,74.3q1.38,3.67,2.45,7.46a79.08,79.08,0,0,1,2.27,11,3.9,3.9,0,0,0,0,7.8h.51c0,.23,0,.46,0,.69s-.08,2.89-.11,3.79H8.11a6.61,6.61,0,0,0-6.61,6.61v7.6h50v-7.6A6.61,6.61,0,0,0,44.84,105Z"/><path class="cls-1" d="M55.84,61.06a7.67,7.67,0,1,0,15.33,0c0-4.23-3.15-6.18-7.67-7.66-4-1.31-7.66-3.43-7.66-7.66a7.67,7.67,0,1,1,15.33,0"/><line class="cls-1" x1="63.5" y1="33.8" x2="63.5" y2="38.12"/><line class="cls-1" x1="63.5" y1="68.73" x2="63.5" y2="73.05"/><path class="cls-1" d="M75.91,1.5H50.24a2,2,0,0,0-2,2v11a4.27,4.27,0,0,0,4.27,4.27h.06a4.37,4.37,0,0,0,4-2.76,7.1,7.1,0,0,1,13.07,0,4.37,4.37,0,0,0,4,2.76h.06a4.27,4.27,0,0,0,4.27-4.27v-11A2,2,0,0,0,75.91,1.5Z"/><path class="cls-1" d="M108,10.5h9.39V98A21.24,21.24,0,0,1,96.16,119.2H57.45"/><path class="cls-1" d="M57.45,109.81H88.84a5.89,5.89,0,0,0,5.89-5.89v-7.4h7.39a5.89,5.89,0,0,0,5.9-5.89V1.5H84.77"/><polyline class="cls-1" points="41.38 1.5 18.14 1.5 18.14 44.53"/><path class="cls-2" d="M34,59.67a5.4,5.4,0,0,0-.23-.49,8.17,8.17,0,0,0-14.59,0,7.7,7.7,0,0,0-.65,5.24,12.83,12.83,0,0,0,.61,1.93C22.52,62.45,27.34,59.3,34,59.67Z"/></svg>