<svg id="Layer_1" data-name="Layer 1" xmlns="http://www.w3.org/2000/svg" viewBox="0 0 129.11 124.92"><defs><style>.cls-1{fill:none;stroke:#091f2c;stroke-linecap:round;stroke-linejoin:round;stroke-width:3px;}.cls-2{fill:#2e95d3;}.cls-3{fill:#5eabdb;}</style></defs><title>vendors_356f2203-a764-4883-b819-ae152cfad12b</title><line class="cls-1" x1="87.7" y1="100.69" x2="87.7" y2="123.42"/><line class="cls-1" x1="102" y1="123.42" x2="102" y2="77.97"/><line class="cls-1" x1="116.3" y1="77.97" x2="116.3" y2="123.42"/><line class="cls-1" x1="116.3" y1="54.31" x2="116.3" y2="77.97"/><circle class="cls-1" cx="102" cy="14.95" r="13.45"/><path class="cls-1" d="M76.69,41.72a8.74,8.74,0,0,1,8.45-6.49h33.72A8.75,8.75,0,0,1,127.61,44V78"/><line class="cls-1" x1="99.11" y1="77.97" x2="116.3" y2="77.97"/><line class="cls-1" x1="12.81" y1="49.49" x2="12.81" y2="123.42"/><line class="cls-1" x1="27.11" y1="123.42" x2="27.11" y2="77.97"/><line class="cls-1" x1="41.41" y1="101.76" x2="41.41" y2="123.42"/><circle class="cls-1" cx="27.11" cy="14.95" r="13.45"/><path class="cls-1" d="M1.5,78V44a8.75,8.75,0,0,1,8.75-8.75H44"/><line class="cls-1" x1="12.81" y1="77.97" x2="30.15" y2="77.97"/><path class="cls-1" d="M57.5,81.79a7.47,7.47,0,0,0,14.94,0c0-4.13-3.06-6-7.47-7.47C61.05,73,57.5,71,57.5,66.85a7.47,7.47,0,0,1,14.94,0"/><line class="cls-1" x1="64.97" y1="55.22" x2="64.97" y2="59.43"/><line class="cls-1" x1="64.97" y1="89.26" x2="64.97" y2="93.47"/><path class="cls-1" d="M56.45,46.8C54.2,48.07,51.33,49,48.24,51a27,27,0,0,0-9.52,11.19A29.14,29.14,0,0,0,38,85.27"/><polyline class="cls-1" points="56.5 42.33 61.33 41.23 62.43 46.05"/><path class="cls-1" d="M44.82,95.82c2.14,1.32,4.3,3.26,7.45,4.88a26.92,26.92,0,0,0,14.45,2.64,29.14,29.14,0,0,0,20.37-11"/><polyline class="cls-1" points="40.66 97.85 37.29 94.22 40.92 90.86"/><path class="cls-1" d="M92.84,80.8a71.55,71.55,0,0,0,.49-8.46A27,27,0,0,0,88.39,58.5,29.1,29.1,0,0,0,68.72,46.34"/><polyline class="cls-1" points="96.67 83.81 95.21 88.55 90.48 87.09"/><path class="cls-2" d="M18.81,61.32h0A36.45,36.45,0,0,1,36.23,43.5L41,41.23H18.81Z"/><path class="cls-3" d="M110.69,61.32h0A36.39,36.39,0,0,0,93.28,43.5l-4.73-2.27h22.14Z"/></svg>