<?xml version="1.0" encoding="UTF-8"?>
<!DOCTYPE svg PUBLIC "-//W3C//DTD SVG 1.1//EN" "http://www.w3.org/Graphics/SVG/1.1/DTD/svg11.dtd">
<!-- Creator: CorelDRAW 2021 (64-Bit) -->
<svg xmlns="http://www.w3.org/2000/svg" xml:space="preserve" width="1.71644in" height="1.71662in" version="1.1" style="shape-rendering:geometricPrecision; text-rendering:geometricPrecision; image-rendering:optimizeQuality; fill-rule:evenodd; clip-rule:evenodd"
viewBox="0 0 1004.26 1004.36"
 xmlns:xlink="http://www.w3.org/1999/xlink"
 xmlns:xodm="http://www.corel.com/coreldraw/odm/2003">
 <defs>
  <style type="text/css">
   <![CDATA[
    .fil1 {fill:#008BCB}
    .fil0 {fill:#444F54}
   ]]>
  </style>
 </defs>
 <g id="Layer_x0020_1">
  <metadata id="CorelCorpID_0Corel-Layer"/>
  <g id="_2463144337664">
   <path class="fil0" d="M156.45 940.39l237.65 -0.8c-74.56,42.62 -163.32,43.09 -237.65,0.8zm101.63 -130.38l162.97 0 -0.03 97.23 -161.95 -0.02 -0.98 -97.21zm454.51 32.52l8 0.01 16.19 -0.12 40.5 0 -0.01 32.41 -64.78 0 -0 -10.13 0.11 -14.17 0 -8zm-96.75 -64.88l258.59 0 -0.01 32.41 -259.1 0 0.52 -32.41zm-486.29 -97.06l161.96 -0.11 -0.03 97.21 -64.85 -0.11 0.08 129.65 -97.19 0 0.11 -200.42 -0.08 -26.23zm227.13 -74.78c38.23,46.25 71.01,71.23 155.42,74.76 13.42,25.76 2.94,96.84 -5.97,123.49 -10.31,30.85 -28.94,66.67 -52.69,88.47l-0.06 -114.91 -129.58 0.07 0.14 -97.07 32.33 -0.14 0.41 -74.67zm-260.16 286.66c-4.28,-5.01 -6.44,-6.39 -10.85,-12.24 -26.86,-35.61 -43.17,-67.5 -50.62,-115.42 -8.06,-51.83 4.45,-118.39 29.65,-154.84l0.08 70.51 32.38 0 -0.64 211.99zm518.89 -147.27c-0.02,-31.66 -1.41,-65.92 -0.24,-97.24 0.39,-10.28 2.77,-11.33 8.21,-16.05 22.86,-19.85 2.94,-16.21 56.73,-16.21 64.78,0 129.57,0 194.31,0l0.03 129.59 -259.04 -0.09zm-518.25 -129.5l226.74 0 -0.03 32.45 -226.73 0 0.02 -32.45zm583 -123.44c18.14,-9.46 66.59,-6.44 87.75,-2.92 25.76,4.29 52.83,13.26 72.99,24.36 153.01,84.29 169.98,273.32 60.52,386.1 -86.99,89.64 -246.06,100.39 -344.44,0.98 -10.55,-10.67 -24.03,-26.31 -32.6,-40.44 -13.1,-21.6 41.27,-46.8 21.19,-183.89l8.93 -4.22c2.72,-0.93 6.01,-1.83 9.12,-2.97 7.36,-2.68 12.13,-5.18 19.34,-7.97 0,201.31 -15.82,181.11 97.16,181.11l-0.14 32.33 -32.25 0.11 -0.14 32.44 194.51 -0.05 0 -32.43 -32.5 0.05 0 -32.44c75.93,0 97.23,11.33 97.16,-52.6 -0.06,-49.93 0.11,-99.85 0.11,-149.78 -0,-66.69 -16.35,-56.31 -93.2,-56.66 -50.92,-0.23 -101.88,0.01 -152.8,0.01 14.87,-38.05 17.45,-45.79 19.27,-91.11zm-598.25 90.14c2.64,-2.42 4.9,-6.24 9.28,-11.05 12.83,-14.12 14.83,-18.06 32.8,-32.03 30.78,-23.93 19.01,-19.92 55.51,-5.94 56.73,21.72 89.09,17.96 150.55,12.58 2.97,15.33 7.74,23.8 13.01,37.4l-261.15 -0.96zm405.27 -224.99c84.26,-9.81 151.96,55.77 159.77,129.7 9,85.22 -55.28,151.92 -129.36,160.14 -84.84,9.41 -152.71,-55.03 -160.58,-129.6 -9.08,-86.02 55.12,-151.51 130.17,-160.25zm-227.58 -33.24l31.99 0 0.02 64.95 -32.49 -0.11 -0.11 -34.39 0.6 -30.45zm560.66 1.71c18.66,-8.93 30.31,21.09 11.9,29.11 -17.49,7.64 -33.95,-18.56 -11.9,-29.11zm-194.28 0.06c18.17,-8.71 30.91,20.63 11.86,29.02 -17.52,7.72 -33.82,-18.49 -11.86,-29.02zm3.01 -85.19c4.28,-19.43 7.89,-38.1 11.7,-57.34 2.08,-10.51 3.03,-17.95 13.67,-20.35l139.11 -0.76c23.08,0 21.43,12.26 25.22,31.27 3.16,15.86 6.21,31.19 9.69,47.29l78.27 16.61 0.1 36.43c0,29.05 -3.78,30.33 -32.31,30.28 -10.17,-5 -13.2,-32.19 -48.58,-32.2 -35.41,-0.01 -38.1,27.11 -48.58,32.32l-97.16 -0.11c-10.35,-5.04 -13.31,-32.18 -48.58,-32.21 -35.44,-0.02 -38.07,27.05 -48.58,32.32 -8.55,2.02 -32.63,2.54 -32.42,-22.3 0.52,-61.12 -15.4,-40.81 78.45,-61.24zm-434.6 18.82l161.91 -0.11 -0.05 129.6 -32.42 0 0.04 -97.16 -97.13 0 -0.03 97.16 -32.42 0 0.12 -113.38 -0.02 -16.11zm74.31 -128.63c12.19,-3.11 22.65,3.27 28.94,9.08l65.24 56.16c4.98,3.71 5.99,5.34 10.74,9.45 9.14,7.92 33.63,21.84 -9.26,21.51 -26.96,-0.21 -54.01,-0.02 -80.98,-0.02 -11.05,0 -114.34,2.62 -119.31,-2.48 -7.04,-7.21 11.93,-18.09 14.98,-20.94 9.76,-9.1 77.33,-69.62 89.65,-72.76zm223.17 193.25c-9.73,-18.68 -6.44,-67.72 -2.62,-89.48 34.18,-194.4 271.93,-269.85 411.06,-130.65 65.67,65.7 101.13,184.52 40.07,290.17 -21.32,36.89 -39.12,54.34 -69.62,78.18 -14.06,10.98 -13.81,13.42 -30.43,5.41 -60.4,-29.13 -107.83,-24.05 -166.4,-19.02 -7.45,-38.19 -26.43,-54.24 -33.84,-69.77 8.92,-5.39 14.32,-4.4 23.6,-12.36 5.33,-4.57 10.01,-16.84 16.17,-20.04l97.41 0c10.71,5.25 12.78,32.41 48.57,32.31 35.6,-0.1 37.98,-27.04 48.58,-32.31 25.83,0 43.15,-2.88 54.45,-18.37 12.88,-17.67 10.18,-37.76 10.31,-62.57 0.26,-48.43 -7.97,-51.63 -83.69,-62.05 -13.42,-96.88 -32.41,-83.62 -126.81,-83.67 -27.47,-0.01 -77.28,-5.36 -97.32,7.94 -27.58,18.31 -17.55,42.42 -30.56,75.03 -23.79,8.64 -63.67,6.65 -75.7,23.09 -10.96,14.99 -8.52,67.88 -4.38,88.81l-28.86 -0.64zm-168.05 188.31c-17.65,9.17 -68.47,6.29 -89.49,2.6 -26.2,-4.6 -52.32,-13.52 -72.51,-24.8 -155.69,-86.97 -165.63,-279.1 -58.29,-386.4 103.61,-103.58 280.15,-93.11 368.6,29.58 10.46,14.51 13.32,13.77 5.21,30.5 -27.13,55.94 -24.7,101.11 -18.91,166.46 -14.54,2.81 -27.18,8.19 -39.2,14.3 -12.79,6.52 -20.71,13.85 -30.57,19.56l0.07 -105.53c20.64,-4.39 39.11,-23.27 30.39,-49.98 -4.42,-13.55 -30.74,-34.12 -41.99,-43.02 -33.95,-26.89 -66.26,-67.6 -101.84,-67.61 -28.02,-0.01 -41.86,16.24 -55.89,28.49 -7.52,6.57 -15.97,13.01 -22.94,19.6 -15.65,14.79 -58.92,43.74 -64.93,62.57 -10.5,32.92 15.51,43.55 29.81,50.66 2.75,23.42 0.62,61.96 0.61,87.04 0,90.96 -6.45,74.87 181.11,74.87 -14.88,38.2 -17.44,45.61 -19.26,91.11zm-323.81 -250.99c0,69.74 12.6,123.14 54.05,178.72 3.9,5.22 5.09,6.45 9.14,11.09 13.3,15.23 25.66,29.51 42.89,42.12 6.77,4.95 9.31,3.45 11.31,10.96 -7.68,2.05 -16.66,11.78 -23.44,17.05 -7.32,5.68 -15.12,14.1 -21.63,20.86 -41.81,43.43 -72.32,115.83 -72.32,176.64 0,65.13 8.2,95.64 37.13,149.1 40.83,75.49 137.31,136.3 223.99,136.3 51.55,0 78.7,-2.97 124.94,-22.82 31.91,-13.7 74.32,-42.92 95.99,-69.99 5.13,-6.41 15.9,-17.04 17.91,-24.59l4.05 0c2.05,7.67 11.78,16.66 17.05,23.44 5.68,7.32 14.1,15.13 20.86,21.64 4.64,4.47 6.5,5.09 11.12,9.12l36.66 26.08c5.53,3.02 7.72,4.49 13.24,7.01 4.81,2.2 8.28,3.87 13.73,6.51 41.48,20.11 79.22,23.59 126.19,23.59 38.03,0 76.2,-14.01 103.82,-25.72l40.72 -24.06c14.04,-9.7 24.36,-18.95 36.11,-30.68 10.95,-10.93 21.11,-22.54 29.85,-34.92 4.2,-5.95 8.97,-12.7 12.79,-19.6 54.94,-99.14 51.31,-214.31 -16.23,-304.86 -3.89,-5.22 -5.09,-6.45 -9.14,-11.09 -4.33,-4.95 -5.27,-7.21 -10.14,-12.13l-32.76 -29.99c-6.77,-4.95 -9.3,-3.45 -11.31,-10.96 7.68,-2.05 16.66,-11.78 23.44,-17.04 13.85,-10.75 21,-20.79 30.77,-31.98 36.96,-42.36 63.19,-108.59 63.19,-165.53 0,-57.4 -3.97,-76.8 -25.72,-128.11 -3.63,-8.57 -7.01,-12.87 -11.4,-20.99 -16.72,-30.91 -49.88,-65.66 -78.25,-85.69 -71.04,-50.16 -156.92,-63.73 -241.33,-38.92 -29.57,8.69 -59.1,24.45 -83.13,42.37l-53.21 52.04c-4.95,6.77 -3.45,9.31 -10.96,11.31 -5.33,-19.96 -61.43,-67.11 -85.7,-80.28l-26.97 -13.5c-42,-20.2 -78.72,-23.62 -126.17,-23.62 -38.44,0 -75.95,13.91 -103.82,25.72 -8.57,3.63 -12.87,7.01 -20.99,11.4 -7.35,3.97 -12.87,7.91 -19.73,12.65 -65.66,45.35 -116.57,130.7 -116.57,211.34z"/>
   <path class="fil1" d="M485.76 453.78c31.19,0 32.32,2.82 32.35,32.49l32.42 -0.1c0,-19.55 1.16,-29.16 -8.76,-43.8 -22.06,-32.56 -23.66,8.95 -23.6,-53.31l-32.36 0 -0.03 32.38 -32.36 0c0,38.07 -5.86,72.73 23.25,90.07 27.1,16.15 41.53,-7.18 41.53,39.48 -30.1,0 -32.37,-2.29 -32.32,-32.49l-32.46 0.11c0,64.04 29.12,50.55 32.39,64.74l-0.15 32.36 32.48 0 -0 -32.39 32.39 0c0,-37.66 5.83,-72.92 -23.21,-90.11 -20.35,-12.04 -41.56,1.07 -41.56,-29.29l0 -10.15z"/>
   <polygon class="fil1" points="97.13,648.15 323.86,648.15 323.89,615.7 97.16,615.7 "/>
   <polygon class="fil1" points="259,354.62 259.11,389.01 291.6,389.13 291.59,324.17 259.6,324.17 "/>
   <polygon class="fil1" points="712.59,850.54 712.47,864.7 712.48,874.84 777.26,874.84 777.28,842.43 736.78,842.43 720.59,842.55 712.59,842.53 "/>
   <polygon class="fil1" points="161.68,874.8 194.29,874.8 194.29,842.49 178.13,842.36 161.85,842.36 161.84,856.61 "/>
   <polygon class="fil1" points="291.5,874.84 299.57,874.91 323.92,874.9 323.93,850.54 323.88,842.47 291.5,842.47 "/>
   <polygon class="fil1" points="226.73,745.25 232.78,745.23 247.01,745.36 259.17,745.36 259.18,733.13 259.06,718.97 259.09,712.92 226.73,712.92 "/>
   <polygon class="fil1" points="161.96,810.02 168,810.01 182.17,810.13 194.4,810.13 194.41,797.91 194.29,783.74 194.32,777.69 161.96,777.69 "/>
   <polygon class="fil1" points="356.28,858.63 356.28,874.79 388.63,874.79 388.6,842.47 372.44,842.47 356.17,842.34 "/>
   <polygon class="fil1" points="161.93,745.25 194.29,745.25 194.32,712.92 161.96,712.92 "/>
   <path class="fil1" d="M820.26 325.88c-22.05,10.55 -5.59,36.75 11.9,29.11 18.41,-8.03 6.76,-38.05 -11.9,-29.11z"/>
   <path class="fil1" d="M625.97 325.94c-21.96,10.53 -5.66,36.74 11.86,29.02 19.06,-8.39 6.31,-37.74 -11.86,-29.02z"/>
  </g>
 </g>
</svg>
