<svg id="Layer_1" data-name="Layer 1" xmlns="http://www.w3.org/2000/svg" viewBox="0 0 118.87 129.28"><defs><style>.cls-1{fill:none;stroke:#091f2c;stroke-linecap:round;stroke-linejoin:round;stroke-width:3px;}.cls-2{fill:#5eabdb;}</style></defs><title>customers_f6011364-e19d-4e96-9918-dbd4a0e4f91f</title><circle class="cls-1" cx="14.99" cy="13.14" r="11.64" transform="translate(-4.9 14.45) rotate(-45)"/><line class="cls-1" x1="23.32" y1="76.96" x2="23.32" y2="117.4"/><line class="cls-1" x1="6.66" y1="116.71" x2="6.66" y2="76.96"/><path class="cls-1" d="M15,42.68v4.86a8.6,8.6,0,0,0,8.6,8.6H47.88"/><path class="cls-1" d="M6.66,116.71H19.5a11.07,11.07,0,0,1,11.07,11.07v0a0,0,0,0,1,0,0H6.66a0,0,0,0,1,0,0V116.71A0,0,0,0,1,6.66,116.71Z"/><path class="cls-1" d="M28.48,49.82v-5.6A13.49,13.49,0,0,0,15,30.73h0A13.49,13.49,0,0,0,1.5,44.22V56.31A43.87,43.87,0,0,0,6.66,77H23.32A43.83,43.83,0,0,0,28,63"/><path class="cls-1" d="M81.33,46.78a4.54,4.54,0,1,0,9.08,0c0-2.51-1.86-3.66-4.54-4.54-2.38-.77-4.54-2-4.54-4.53a4.54,4.54,0,1,1,9.08,0"/><line class="cls-1" x1="85.87" y1="30.64" x2="85.87" y2="33.2"/><line class="cls-1" x1="85.87" y1="51.32" x2="85.87" y2="53.88"/><circle class="cls-1" cx="85.87" cy="42.24" r="17.67"/><polygon class="cls-1" points="85.87 103.2 107.6 103.2 117.38 73.2 85.87 73.2 54.37 73.2 64.16 103.21 85.87 103.2"/><line class="cls-1" x1="54.37" y1="73.2" x2="47.88" y2="56.14"/><path class="cls-1" d="M74.77,122.93a4.85,4.85,0,1,1-4.85-4.85A4.85,4.85,0,0,1,74.77,122.93Z"/><path class="cls-1" d="M106.67,122.93a4.85,4.85,0,1,1-4.85-4.85A4.85,4.85,0,0,1,106.67,122.93Z"/><line class="cls-1" x1="70.31" y1="111.16" x2="101.43" y2="111.16"/><polygon class="cls-2" points="66.29 90.41 68.51 97.21 103.25 97.2 105.46 90.41 66.29 90.41"/></svg>