<svg id="Layer_1" data-name="Layer 1" xmlns="http://www.w3.org/2000/svg" viewBox="0 0 128.75 96.7"><defs><style>.cls-1,.cls-2{fill:none;stroke:#091f2c;stroke-linecap:round;stroke-linejoin:round;stroke-width:3px;}.cls-2{stroke-dasharray:0.01 6;}.cls-3{fill:#2e95d3;}</style></defs><title>deduc_be654b55-cb67-44f6-a7c5-c880d4a18601</title><line class="cls-1" x1="19.57" y1="53.29" x2="34.79" y2="25.57"/><path class="cls-1" d="M37.7,53.29h0a4.93,4.93,0,0,1-4.92-4.93V44.94A4.92,4.92,0,0,1,37.7,40h0a4.92,4.92,0,0,1,4.93,4.92v3.42A4.93,4.93,0,0,1,37.7,53.29Z"/><path class="cls-1" d="M17,38.84h0a4.93,4.93,0,0,1-4.93-4.93V30.5A4.93,4.93,0,0,1,17,25.57h0a4.93,4.93,0,0,1,4.93,4.93v3.41A4.93,4.93,0,0,1,17,38.84Z"/><line class="cls-1" x1="87.92" y1="64.4" x2="55.95" y2="48.9"/><path class="cls-1" d="M96.91,68.76,109.76,75l13.43,6.52a7.2,7.2,0,0,1,3.34,9.62h0a7.21,7.21,0,0,1-9.63,3.34l-7-3.36a7.22,7.22,0,0,1-3.34-9.63L109.76,75"/><line class="cls-1" x1="87.76" y1="68.36" x2="55.95" y2="83.79"/><path class="cls-1" d="M96.72,64l13.12-6.37.9-.43,12.45-6a7.22,7.22,0,0,0,3.34-9.63h0a7.22,7.22,0,0,0-9.63-3.34l-7,3.37a7.22,7.22,0,0,0-3.34,9.63h0l3.66,6.24"/><path class="cls-1" d="M87.42,66.57a5,5,0,1,1,5,5A5,5,0,0,1,87.42,66.57Z"/><polyline class="cls-1" points="57.31 66.57 1.5 66.57 1.5 12.29 84.45 12.29 84.45 51.46"/><line class="cls-2" x1="62.34" y1="66.57" x2="77.98" y2="66.57"/><polyline class="cls-1" points="14.75 12.29 14.75 1.5 97.42 1.5 97.42 40.02"/><path class="cls-3" d="M46.08,18.29l4.53,2.19a76.39,76.39,0,0,1,27,21.84l.81,1V18.29Z"/></svg>