<svg xmlns="http://www.w3.org/2000/svg" width="57.574" height="79.123" viewBox="0 0 57.574 79.123">
  <g id="Group_18" data-name="Group 18" transform="translate(-350.55 -249)">
    <g id="Group_15" data-name="Group 15" transform="translate(369.237 290.086)">
      <path id="Path_29" data-name="Path 29" d="M492.59,463.436a.824.824,0,0,1-.824-.824v-5.343a.824.824,0,1,1,1.648,0v5.343A.824.824,0,0,1,492.59,463.436Z" transform="translate(-482.484 -456.445)" fill="#091f2c"/>
      <path id="Path_30" data-name="Path 30" d="M448.18,470.134a.824.824,0,0,1-.759-.5l-2.454-5.817a.824.824,0,0,1,1.518-.64l2.454,5.817a.825.825,0,0,1-.759,1.144Z" transform="translate(-444.902 -461.436)" fill="#091f2c"/>
      <path id="Path_31" data-name="Path 31" d="M529.527,471.951a.825.825,0,0,1-.774-1.106l1.954-5.368a.824.824,0,0,1,1.549.564l-1.954,5.368A.825.825,0,0,1,529.527,471.951Z" transform="translate(-512.105 -463.254)" fill="#091f2c"/>
    </g>
    <g id="Group_17" data-name="Group 17" transform="translate(355.606 249)">
      <g id="Group_16" data-name="Group 16" transform="translate(0 17.167)">
        <path id="Path_32" data-name="Path 32" d="M541.482,367.841a.824.824,0,0,1-.816-.72l-.127-1a8.684,8.684,0,0,0-2.97-4.947,6.939,6.939,0,0,0-2.845-1.506l-8.29-2.4a2.619,2.619,0,0,1-1.87-2.211l-.38-3.259a.824.824,0,0,1,.313-.746,13.272,13.272,0,0,0,4.539-7.151.824.824,0,0,1,.724-.612c1.037-.092,1.849-1.414,1.849-3.009,0-1.487-.692-2.74-1.646-2.979a.824.824,0,1,1,.4-1.6c1.7.427,2.894,2.31,2.894,4.578,0,2.221-1.154,4.056-2.766,4.538a14.947,14.947,0,0,1-4.617,7.24l.328,2.808a.971.971,0,0,0,.693.819l8.237,2.392a8.495,8.495,0,0,1,3.486,1.831,10.336,10.336,0,0,1,3.543,5.923c0,.019.007.038.01.057l.131,1.025a.825.825,0,0,1-.818.928Z" transform="translate(-494.847 -335.676)" fill="#091f2c"/>
        <path id="Path_33" data-name="Path 33" d="M376.906,367.929a.825.825,0,0,1-.818-.928l.131-1.025c0-.019.005-.038.009-.056A10.309,10.309,0,0,1,379.772,360a8.574,8.574,0,0,1,3.566-1.854l8.156-2.369a.969.969,0,0,0,.692-.819l.324-2.809a15,15,0,0,1-4.62-7.241c-1.607-.485-2.758-2.32-2.758-4.537s1.15-4.08,2.8-4.55a.824.824,0,1,1,.452,1.584c-.927.265-1.6,1.512-1.6,2.966,0,1.593.809,2.915,1.843,3.009a.824.824,0,0,1,.722.61,13.334,13.334,0,0,0,4.542,7.152.824.824,0,0,1,.313.745l-.377,3.259a2.617,2.617,0,0,1-1.87,2.212l-8.209,2.383a7.018,7.018,0,0,0-2.924,1.529,8.657,8.657,0,0,0-2.971,4.945l-.127,1A.824.824,0,0,1,376.906,367.929Z" transform="translate(-376.081 -335.764)" fill="#091f2c"/>
      </g>
      <path id="Path_34" data-name="Path 34" d="M433.611,308.714a.824.824,0,0,1-.821-.766c-.014-.2-.317-4.867,1.558-7.614a.824.824,0,1,1,1.361.929c-1.551,2.273-1.278,6.528-1.275,6.571a.824.824,0,0,1-.765.879Z" transform="translate(-421.537 -289.878)" fill="#091f2c"/>
      <path id="Path_35" data-name="Path 35" d="M548.048,314.936h-.041a.824.824,0,0,1-.783-.863,17.723,17.723,0,0,0-.711-5.254.824.824,0,1,1,1.579-.471,19.07,19.07,0,0,1,.777,5.806A.823.823,0,0,1,548.048,314.936Z" transform="translate(-512.73 -296.122)" fill="#091f2c"/>
      <path id="Path_36" data-name="Path 36" d="M457.462,260.857a10.867,10.867,0,0,1-1.429-.106,35.835,35.835,0,0,1-3.544-.713c-.721-.171-1.466-.348-2.2-.489a11,11,0,0,0-5.362.025.824.824,0,1,1-.484-1.575,12.53,12.53,0,0,1,6.159-.068c.765.147,1.527.328,2.265.5a33.977,33.977,0,0,0,3.38.684,6.134,6.134,0,0,0,2.518-.081,4.5,4.5,0,0,0,2.639-2.555,14.084,14.084,0,0,0,.478-4.375,10.1,10.1,0,0,1-5.98.139.824.824,0,0,1-.548-1.108.931.931,0,0,0,.062-.239,33.676,33.676,0,0,1-5.773,1.17l-.208.027c-3.7.488-7.708,3.147-7.749,7.833a.824.824,0,0,1-.824.817h-.008a.824.824,0,0,1-.817-.831c.05-5.67,4.794-8.874,9.181-9.453l.212-.028a28.208,28.208,0,0,0,6.217-1.372.824.824,0,0,1,1.008.325,2.642,2.642,0,0,1,.413,1.438,8.747,8.747,0,0,0,5.308-.658.824.824,0,0,1,1.142.746c.038,2.314,0,4.864-.605,6.232a5.667,5.667,0,0,1-5.451,3.712Z" transform="translate(-427.371 -249)" fill="#091f2c"/>
    </g>
    <path id="Path_37" data-name="Path 37" d="M415.181,623.615H364.424a.824.824,0,0,1-.824-.824,5.327,5.327,0,0,1,5.321-5.321h41.763A5.327,5.327,0,0,1,416,622.791.824.824,0,0,1,415.181,623.615Zm-49.84-1.648h48.923a3.68,3.68,0,0,0-3.58-2.849H368.921A3.68,3.68,0,0,0,365.341,621.967Z" transform="translate(-10.466 -295.491)" fill="#091f2c"/>
    <path id="Path_38" data-name="Path 38" d="M356.867,530.044a.824.824,0,0,1-.789-.589l-5.363-18.038a3.907,3.907,0,0,1,3.745-5.02h49.755a3.907,3.907,0,0,1,3.744,5.02L402.6,529.454a.824.824,0,0,1-1.58-.47l5.362-18.037a2.259,2.259,0,0,0-2.165-2.9H354.459a2.259,2.259,0,0,0-2.165,2.9l5.362,18.037a.824.824,0,0,1-.555,1.025A.812.812,0,0,1,356.867,530.044Z" transform="translate(0 -206.417)" fill="#091f2c"/>
    <path id="Path_39" data-name="Path 39" d="M466.528,416.856a6.06,6.06,0,0,1-2.9-.743l-3.924-2.138a.824.824,0,1,1,.788-1.447l3.924,2.138a4.4,4.4,0,0,0,4.233,0l3.909-2.135a.824.824,0,1,1,.79,1.446l-3.909,2.135A6.059,6.059,0,0,1,466.528,416.856Z" transform="translate(-87.189 -131.059)" fill="#091f2c"/>
    <path id="Path_40" data-name="Path 40" d="M371.731,527.2l4.034,13.57a19.012,19.012,0,0,0,1.715-4.153,6.727,6.727,0,0,1,1.57-3.432,5.544,5.544,0,0,1,3.91-.915c4.648.137,9.332.719,13.923-.016a24.727,24.727,0,0,0,11.361-5.053H371.731Z" transform="translate(-16.986 -223.097)" fill="#2e95d3"/>
  </g>
</svg>
