<svg id="Layer_1" data-name="Layer 1" xmlns="http://www.w3.org/2000/svg" viewBox="0 0 125 126.87"><defs><style>.cls-1{fill:none;stroke:#091f2c;stroke-linecap:round;stroke-linejoin:round;stroke-width:3px;}.cls-2{fill:#2e95d3;}</style></defs><title>quto_929c1cfc-9d40-43d2-9a0e-38106e165c06</title><polyline class="cls-1" points="62.5 125.37 16.3 109.15 16.3 77.1"/><line class="cls-1" x1="16.3" y1="49.75" x2="62.5" y2="65.98"/><polyline class="cls-1" points="62.5 78.35 62.5 125.37 108.7 109.15 108.7 77.1"/><line class="cls-1" x1="108.7" y1="49.75" x2="62.5" y2="65.98"/><polyline class="cls-1" points="76.63 41.54 108.7 49.75 123.5 64.56 78.27 81.38 62.5 65.98"/><polyline class="cls-1" points="62.5 65.98 46.73 81.38 1.5 64.56 16.3 49.75 48.37 41.55"/><polyline class="cls-1" points="53.34 47.41 53.37 29.17 39.03 29.15 62.54 1.5 85.95 29.23 71.61 29.2 71.58 47.44"/><path class="cls-2" d="M51.06,115c-.09-.24-.18-.49-.28-.72a25.8,25.8,0,0,0-10.37-11.62c-2.06-1.22-4.37-2.22-5.82-4.12-1.66-2.17-1.88-5.08-2.93-7.61-1.64-4-5.28-6.73-9.36-8.2V104.9Z" transform="translate(0 0)"/><path class="cls-2" d="M74.3,115c.1-.24.19-.49.29-.72A25.78,25.78,0,0,1,85,102.66c2.06-1.22,4.37-2.22,5.83-4.12,1.66-2.17,1.88-5.08,2.92-7.61,1.64-4,5.28-6.73,9.36-8.2V104.9Z" transform="translate(0 0)"/></svg>