<svg id="Layer_1" data-name="Layer 1" xmlns="http://www.w3.org/2000/svg" viewBox="0 0 124.1 120.31"><defs><style>.cls-1{fill:none;stroke:#091f2c;stroke-linecap:round;stroke-linejoin:round;stroke-width:3px;}.cls-2{fill:#5eabdb;}</style></defs><title>raw_a10c0b12-3a12-401b-8fb6-6406de791c9d</title><path class="cls-1" d="M47.3,108.44v4.27a3.57,3.57,0,0,1-2.65,3.45h0a78.55,78.55,0,0,1-40.5,0h0a3.57,3.57,0,0,1-2.65-3.45v-4.27"/><path class="cls-1" d="M47.3,95.35v4.26a3.57,3.57,0,0,1-2.65,3.45h0a78.55,78.55,0,0,1-40.5,0h0A3.57,3.57,0,0,1,1.5,99.61V95.35"/><path class="cls-1" d="M47.3,82.25v4.26A3.57,3.57,0,0,1,44.65,90h0a78.55,78.55,0,0,1-40.5,0h0A3.57,3.57,0,0,1,1.5,86.51V82.25"/><path class="cls-1" d="M47.3,74.49C47.3,78.08,37.05,81,24.4,81S1.5,78.08,1.5,74.49,11.75,68,24.4,68,47.3,70.91,47.3,74.49Z"/><polyline class="cls-1" points="67.09 64.69 64.31 67.47 90.44 93.61 107.97 76.08 81.84 49.95 76.27 55.51"/><line class="cls-1" x1="13.69" y1="62.7" x2="13.69" y2="35.96"/><line class="cls-1" x1="13.69" y1="35.96" x2="50.65" y2="48.67"/><polyline class="cls-1" points="64.31 78.69 64.31 118.81 114.93 101.04 114.93 35.95"/><line class="cls-1" x1="72.73" y1="50.23" x2="64.31" y2="53.08"/><line class="cls-1" x1="114.93" y1="35.96" x2="86.93" y2="45.43"/><polyline class="cls-1" points="13.69 35.95 53.42 25.79 64.31 23 114.93 35.95"/><polyline class="cls-1" points="13.69 35.95 6.02 14.46 56.63 1.5 64.31 23"/><polyline class="cls-1" points="114.93 35.95 122.6 14.46 71.98 1.5 67.97 12.75"/><path class="cls-1" d="M75.19,59.26a19.34,19.34,0,0,1-8,.52,12.55,12.55,0,0,1-7-3.58,9.37,9.37,0,0,1-2.61-7.34v-.08a6.58,6.58,0,0,1,7.72-5.52,10.44,10.44,0,0,1,3.39,1.09,8,8,0,0,1,4.08,5.12"/><line class="cls-1" x1="64.31" y1="118.81" x2="53.11" y2="114.72"/><path class="cls-2" d="M99.49,76.08,86,62.62a57.62,57.62,0,0,1-.48,7.54,39,39,0,0,1-2,8.08l6.88,6.88Z"/></svg>