<svg id="Layer_1" data-name="Layer 1" xmlns="http://www.w3.org/2000/svg" viewBox="0 0 96.22 129.28"><defs><style>.cls-1{fill:none;stroke:#091f2c;stroke-linecap:round;stroke-linejoin:round;stroke-width:3px;}.cls-2{fill:#5eabdb;}</style></defs><title>services_7c765155-1a17-46f4-b518-8c92dca5202e</title><rect class="cls-1" x="66.88" y="76.81" width="27.56" height="17.67" rx="2.87"/><path class="cls-2" d="M72.88,88.48V82.81H88.43v5.67l-.69-.25a20.67,20.67,0,0,0-14.17,0Z"/><path class="cls-1" d="M75.16,76.81V72.89a2.68,2.68,0,0,1,2.68-2.68h5.63a2.68,2.68,0,0,1,2.68,2.68v3.92"/><circle class="cls-1" cx="14.99" cy="13.14" r="11.64" transform="translate(-4.9 14.45) rotate(-45)"/><line class="cls-1" x1="23.32" y1="76.96" x2="23.32" y2="117.4"/><line class="cls-1" x1="6.66" y1="116.71" x2="6.66" y2="76.96"/><path class="cls-1" d="M15,42.68v4.86a8.6,8.6,0,0,0,8.6,8.6H42.52"/><path class="cls-1" d="M30.57,127.78H6.66V116.71H19.5a11.07,11.07,0,0,1,11.07,11.07Z"/><path class="cls-1" d="M28.48,49.82v-5.6A13.49,13.49,0,0,0,15,30.73h0A13.49,13.49,0,0,0,1.5,44.22V56.31A43.87,43.87,0,0,0,6.66,77H23.32A43.83,43.83,0,0,0,28,63"/><circle class="cls-1" cx="81.23" cy="13.14" r="11.64" transform="translate(-0.85 19.01) rotate(-13.28)"/><line class="cls-1" x1="72.9" y1="100.48" x2="72.9" y2="117.4"/><line class="cls-1" x1="89.56" y1="116.71" x2="89.56" y2="100.48"/><path class="cls-1" d="M65.65,127.78H89.56V116.71H76.72a11.07,11.07,0,0,0-11.07,11.07Z"/><path class="cls-1" d="M69.58,68.9a43.84,43.84,0,0,1-1.84-12.59V44.22A13.49,13.49,0,0,1,81.23,30.73h0A13.49,13.49,0,0,1,94.72,44.22V56.31A43.84,43.84,0,0,1,92.88,68.9"/><line class="cls-1" x1="81.23" y1="42.68" x2="81.23" y2="70.21"/><line class="cls-1" x1="67.74" y1="56.31" x2="52.39" y2="56.31"/></svg>