<svg id="Layer_1" data-name="Layer 1" xmlns="http://www.w3.org/2000/svg" viewBox="0 0 119.58 120.31"><defs><style>.cls-1{fill:none;stroke:#091f2c;stroke-linecap:round;stroke-linejoin:round;stroke-width:3px;}.cls-2{fill:#2e95d3;}</style></defs><title>product</title><polyline class="cls-1" points="62.57 64.69 59.79 67.47 85.93 93.61 103.45 76.08 77.32 49.95 71.75 55.51"/><line class="cls-1" x1="84.35" y1="67.75" x2="93.98" y2="77.38"/><line class="cls-1" x1="80.97" y1="71.12" x2="90.6" y2="80.75"/><line class="cls-1" x1="77.6" y1="74.5" x2="87.23" y2="84.13"/><polyline class="cls-1" points="59.79 118.81 9.17 101.03 9.17 35.95"/><line class="cls-1" x1="9.17" y1="35.96" x2="46.13" y2="48.67"/><polyline class="cls-1" points="59.79 78.69 59.79 118.81 110.41 101.03 110.41 35.95"/><line class="cls-1" x1="68.21" y1="50.23" x2="59.79" y2="53.08"/><line class="cls-1" x1="110.41" y1="35.96" x2="82.41" y2="45.43"/><polyline class="cls-1" points="9.17 35.95 48.91 25.79 59.79 23 110.41 35.95"/><polyline class="cls-1" points="9.17 35.95 1.5 14.46 52.12 1.5 59.79 23"/><polyline class="cls-1" points="110.41 35.95 118.08 14.46 67.47 1.5 63.45 12.75"/><path class="cls-1" d="M70.67,59.26a19.13,19.13,0,0,1-8,.51,12.41,12.41,0,0,1-7.05-3.57A9.34,9.34,0,0,1,53,48.86v-.08a6.59,6.59,0,0,1,7.72-5.52,10.5,10.5,0,0,1,3.4,1.09,8,8,0,0,1,4.07,5.12"/><path class="cls-2" d="M50.94,109.34A42.15,42.15,0,0,0,40.22,95.59c-4-3.36-8.83-6.17-11.22-10.83s-1.85-10.24-2.72-15.41a28.43,28.43,0,0,0-11.11-18V96.78Z"/></svg>