<svg xmlns="http://www.w3.org/2000/svg" viewBox="0 0 83.84 125.83"><defs><style>.cls-1{fill:none;stroke:#091f2c;stroke-linecap:round;stroke-linejoin:round;stroke-width:3px;}.cls-2{fill:#2e95d3;}.cls-3{fill:#5eabdb;}</style></defs><title>Asset 48</title><g id="Layer_2" data-name="Layer 2"><g id="Icon_Set" data-name="Icon Set"><path class="cls-1" d="M48.45,8.42V8A6.53,6.53,0,0,0,41.92,1.5h0A6.53,6.53,0,0,0,35.39,8v.39"/><path class="cls-1" d="M28.55,10.24V24a2.36,2.36,0,0,0,2.36,2.35h.94a2.35,2.35,0,0,0,2.33-2.05l0-.29a8.24,8.24,0,0,1,8.17-7.18h0A8.23,8.23,0,0,1,50.56,24l0,.29a2.35,2.35,0,0,0,2.33,2.05h0A2.36,2.36,0,0,0,55.29,24V10.24a1.82,1.82,0,0,0-1.82-1.82H30.37A1.82,1.82,0,0,0,28.55,10.24Z"/><path class="cls-1" d="M28.08,13.92H7.87A6.37,6.37,0,0,0,1.5,20.29V118a6.37,6.37,0,0,0,6.37,6.37H76A6.37,6.37,0,0,0,82.34,118V20.29A6.37,6.37,0,0,0,76,13.92H55.29"/><polyline class="cls-1" points="20.88 23.36 10.94 23.36 10.94 114.9 58.92 114.9 72.9 100.91 72.9 23.36 62.96 23.36"/><polyline class="cls-1" points="34.69 62.33 27.2 70.26 23.58 66.64"/><line class="cls-1" x1="23.95" y1="48.21" x2="32.88" y2="39.29"/><line class="cls-1" x1="32.88" y1="48.21" x2="23.95" y2="39.29"/><line class="cls-1" x1="23.95" y1="94.2" x2="32.88" y2="85.28"/><line class="cls-1" x1="32.88" y1="94.2" x2="23.95" y2="85.28"/><path class="cls-2" d="M65.08,50.21H39.25a2,2,0,0,1,0-4H65.08a2,2,0,0,1,0,4Z"/><path class="cls-3" d="M65.08,72.79H39.25a2,2,0,0,1,0-4H65.08a2,2,0,0,1,0,4Z"/><polyline class="cls-1" points="55.93 109.22 55.93 97.93 67.22 97.93"/></g></g></svg>
