<svg id="Layer_1" data-name="Layer 1" xmlns="http://www.w3.org/2000/svg" viewBox="0 0 134.51 131.82"><defs><style>.cls-1{fill:none;stroke:#091f2c;stroke-linecap:round;stroke-linejoin:round;stroke-width:3px;}.cls-2{fill:#2e95d3;}</style></defs><title>recepe_cd47396e-889d-4012-8716-adae9db55648</title><path class="cls-1" d="M79.67,65.36a5.1,5.1,0,0,0,10.19,0c0-2.81-2.09-4.11-5.09-5.09-2.68-.88-5.1-2.28-5.1-5.1a5.1,5.1,0,0,1,10.19,0"/><line class="cls-1" x1="84.77" y1="47.24" x2="84.77" y2="50.11"/><line class="cls-1" x1="84.77" y1="70.45" x2="84.77" y2="73.33"/><polyline class="cls-1" points="84.77 130.32 48.23 117.49 48.23 92.14"/><line class="cls-1" x1="48.23" y1="70.51" x2="84.77" y2="83.34"/><polyline class="cls-1" points="84.77 93.13 84.77 130.32 121.31 117.49 121.31 92.14"/><line class="cls-1" x1="121.3" y1="70.51" x2="84.77" y2="83.34"/><polyline class="cls-1" points="95.86 63.25 121.31 70.51 133.01 82.22 97.23 95.52 84.77 83.34"/><polyline class="cls-1" points="84.77 83.34 72.3 95.52 36.52 82.22 48.23 70.51 72.45 63.59"/><path class="cls-1" d="M42.23,118.66h-35a5.73,5.73,0,0,1-5.73-5.73V7.23A5.74,5.74,0,0,1,7.23,1.5h86a5.74,5.74,0,0,1,5.73,5.73V58"/><line class="cls-1" x1="10.22" y1="22.52" x2="39.87" y2="22.52"/><line class="cls-1" x1="10.22" y1="42.92" x2="25.38" y2="42.92"/><line class="cls-1" x1="58.72" y1="42.92" x2="73.32" y2="42.92"/><path class="cls-1" d="M35.53,37.42h0A3.45,3.45,0,0,1,39,40.87V45a3.45,3.45,0,0,1-3.45,3.44h0A3.44,3.44,0,0,1,32.09,45"/><path class="cls-1" d="M48.68,37.42h0a3.44,3.44,0,0,1,3.44,3.45V45a3.44,3.44,0,0,1-3.44,3.44h0A3.44,3.44,0,0,1,45.24,45"/><path class="cls-1" d="M49.6,17h0A3.44,3.44,0,0,1,53,20.46v4.12A3.44,3.44,0,0,1,49.6,28h0a3.44,3.44,0,0,1-3.44-3.44"/><path class="cls-1" d="M62.75,17h0a3.44,3.44,0,0,1,3.44,3.44v4.12A3.44,3.44,0,0,1,62.75,28h0a3.44,3.44,0,0,1-3.44-3.44"/><path class="cls-1" d="M75.9,17h0a3.44,3.44,0,0,1,3.44,3.44v4.12A3.44,3.44,0,0,1,75.9,28h0a3.45,3.45,0,0,1-3.45-3.44"/><path class="cls-1" d="M26.81,59.64h0a3.45,3.45,0,0,1,3.45,3.45V67.2a3.45,3.45,0,0,1-3.45,3.44h0a3.44,3.44,0,0,1-3.44-3.44"/><line class="cls-1" x1="10.22" y1="65.14" x2="17.8" y2="65.14"/><path class="cls-2" d="M34.91,112.66a21.35,21.35,0,0,0-6.75-5.06c-3.21-1.5-6.92-2.29-9.34-4.87-1.94-2.07-2.71-5-3-7.8s-.16-5.69-.63-8.48A20.34,20.34,0,0,0,7.5,73.85v38.81Z"/></svg>