<svg id="Layer_1" data-name="Layer 1" xmlns="http://www.w3.org/2000/svg" viewBox="0 0 130.38 126.22"><defs><style>.cls-1{fill:none;stroke:#091f2c;stroke-linecap:round;stroke-linejoin:round;stroke-width:3px;}.cls-2{fill:#2e95d3;}</style></defs><title>bounse_46eaf7a9-0ce7-4f0b-adce-8ea2e2f3ef1e</title><polyline class="cls-1" points="68.33 89.03 1.5 89.03 1.5 19.26 123.27 19.26 123.27 71.35"/><polyline class="cls-1" points="12.35 19.26 12.35 9.45 112.42 9.45 112.42 19.26"/><polyline class="cls-1" points="20.73 9.45 20.73 1.5 104.05 1.5 104.05 9.45"/><path class="cls-1" d="M54.84,61.67a7.55,7.55,0,0,0,15.1,0c0-4.17-3.1-6.1-7.55-7.55-4-1.29-7.55-3.38-7.55-7.55a7.55,7.55,0,1,1,15.1,0"/><line class="cls-1" x1="62.39" y1="34.81" x2="62.39" y2="39.07"/><line class="cls-1" x1="62.39" y1="69.22" x2="62.39" y2="73.48"/><circle class="cls-1" cx="101.13" cy="96.97" r="27.75"/><line class="cls-1" x1="101.13" y1="81.58" x2="101.13" y2="112.36"/><line class="cls-1" x1="85.74" y1="96.97" x2="116.52" y2="96.97"/><path class="cls-2" d="M7.5,64.15h0A62.93,62.93,0,0,1,41.91,28.31l7.2-3H7.5Z"/></svg>