<svg id="Layer_1" data-name="Layer 1" xmlns="http://www.w3.org/2000/svg" viewBox="0 0 120.25 123.61"><defs><style>.cls-1{fill:none;stroke:#091f2c;stroke-linecap:round;stroke-linejoin:round;stroke-width:3px;}.cls-2{fill:#2e95d3;}</style></defs><title>invoices_a39ebfac-ae5b-41bf-857f-b3fbc0614ae5</title><path class="cls-1" d="M63.08,98.43a.93.93,0,1,1-.92-.92A.93.93,0,0,1,63.08,98.43Z"/><path class="cls-1" d="M62.16,104.26H78.72a33,33,0,0,0,.45,8.39,11.64,11.64,0,0,0,6.45,7.79h0c1,.5.51,1.67-.65,1.67H39.34c-1.16,0-1.61-1.17-.64-1.67h0a11.64,11.64,0,0,0,6.45-7.79,33.25,33.25,0,0,0,.44-8.39Z"/><rect class="cls-2" x="14.01" y="85.97" width="96.29" height="6.58"/><path class="cls-1" d="M92.29,29.75h21.15a5.31,5.31,0,0,1,5.31,5.31V99a5.3,5.3,0,0,1-5.31,5.3H6.8A5.3,5.3,0,0,1,1.5,99V35.06a5.3,5.3,0,0,1,5.3-5.31H33"/><path class="cls-1" d="M56.48,48.94a4.75,4.75,0,0,0,9.5,0c0-2.62-1.94-3.83-4.75-4.75-2.49-.81-4.75-2.12-4.75-4.75a4.75,4.75,0,0,1,9.5,0"/><line class="cls-1" x1="61.23" y1="32.04" x2="61.23" y2="34.72"/><line class="cls-1" x1="61.23" y1="53.69" x2="61.23" y2="56.37"/><line class="cls-1" x1="73.24" y1="21.91" x2="46.23" y2="21.91"/><line class="cls-1" x1="39.02" y1="65.48" x2="39.02" y2="21.91"/><line class="cls-1" x1="97.67" y1="65.48" x2="27.65" y2="65.48"/><path class="cls-1" d="M39,1.5h37A10.23,10.23,0,0,1,86.29,11.73V65.48"/><path class="cls-1" d="M39,1.5a8.41,8.41,0,0,0-6,14.32H77.27A8.4,8.4,0,0,1,74.84,9.9a8.24,8.24,0,0,1,.24-2"/></svg>